<svg width="128" height="128" viewBox="0 0 128 128" fill="none" xmlns="http://www.w3.org/2000/svg">
<path d="M1.04679 33.9956C1.65248 37.2697 3.5907 40.5994 6.13461 42.7082C10.4956 46.3153 11.0407 46.3708 47.4429 46.3708C79.908 46.3708 80.0291 46.3708 80.0291 47.4806C80.0291 49.7559 78.212 51.9757 75.4864 53.0855C72.9425 54.1399 71.3072 54.1954 45.3835 54.1399C30.3017 54.1399 17.6428 54.0844 17.2794 54.1399C16.7948 54.1399 16.7342 54.9168 17.0976 56.6926C18.0062 61.1877 21.2769 64.8503 26.1225 66.8481C28.6664 67.9024 30.0595 68.0134 46.5949 68.0134H64.2811V69.2343C64.2811 71.2321 62.2218 73.8403 59.8596 74.8392C58.103 75.6161 55.6803 75.7826 45.2624 75.7826H32.7851V77.2809C32.7851 79.5007 35.329 84.1067 37.6912 86.16C41.9311 89.8226 42.5973 89.9336 63.3726 90.1001L82.1491 90.2665L84.6324 92.6528C88.0243 95.8714 92.991 97.6473 97.4731 97.2033C101.652 96.7593 106.195 94.6506 108.254 92.1533L109.829 90.2111H117.098C124.305 90.2111 124.366 90.2111 126.122 88.6017C127.394 87.4363 127.879 86.4375 127.879 85.0501C127.879 83.3853 127.637 83.1078 126.122 82.8303C123.397 82.3309 120.611 79.7227 120.187 77.3364L119.823 75.2277H123.881H127.879V68.3464V61.4651L125.396 61.0767C121.519 60.4662 118.975 59.3009 116.492 57.0256C113.585 54.3619 112.131 51.5317 112.131 48.646V46.3708H120.065H128L127.576 44.5395C126.97 41.7648 126.001 39.7115 125.396 40.0444C125.093 40.2109 125.032 39.9889 125.214 39.545C125.698 38.3796 122.912 35.7159 119.278 33.8846L116.068 32.2198L58.3453 32.0533L0.622803 31.9423L1.04679 33.9956ZM99.9564 76.5595C103.409 78.0579 105.105 82.5529 103.409 85.827C100.865 90.766 94.1418 91.6539 90.0836 87.6028C86.9946 84.6062 87.5397 79.7227 91.1133 77.2254C94.0812 75.1722 96.3828 75.0057 99.9564 76.5595Z" fill="#E53E3E"/>
</svg>
