<svg width="253" height="44" viewBox="0 0 253 44" fill="none" xmlns="http://www.w3.org/2000/svg">
<path d="M0.280143 2.19172C0.680348 4.35507 1.961 6.5551 3.64186 7.94844C6.52333 10.3318 6.88352 10.3685 30.9358 10.3685C52.3868 10.3685 52.4668 10.3685 52.4668 11.1018C52.4668 12.6052 51.2662 14.0718 49.4653 14.8052C47.7844 15.5019 46.7039 15.5385 29.5751 15.5019C19.61 15.5019 11.2457 15.4652 11.0056 15.5019C10.6855 15.5019 10.6454 16.0152 10.8856 17.1885C11.4859 20.1586 13.647 22.5786 16.8486 23.8986C18.5295 24.5953 19.4499 24.6686 30.3755 24.6686H42.0615V25.4753C42.0615 26.7953 40.7008 28.5186 39.14 29.1787C37.9794 29.692 36.3786 29.802 29.4951 29.802H21.2509V30.792C21.2509 32.2587 22.9317 35.3021 24.4925 36.6587C27.2939 39.0788 27.7342 39.1521 41.4612 39.2621L53.8675 39.3721L55.5084 40.9488C57.7495 43.0755 61.0312 44.2488 63.9927 43.9555C66.7541 43.6621 69.7556 42.2688 71.1163 40.6188L72.1569 39.3354H76.9593C81.7217 39.3354 81.7618 39.3354 82.9224 38.2721C83.7628 37.5021 84.083 36.8421 84.083 35.9254C84.083 34.8254 83.9229 34.642 82.9224 34.4587C81.1214 34.1287 79.2805 32.4054 79.0004 30.8287L78.7602 29.4353H81.4416H84.083V24.8886V20.3419L82.4421 20.0852C79.8808 19.6819 78.1999 18.9119 76.5591 17.4085C74.6381 15.6485 73.6776 13.7785 73.6776 11.8718V10.3685H78.9203H84.163L83.8829 9.15845C83.4826 7.3251 82.8423 5.96842 82.4421 6.18842C82.242 6.29842 82.202 6.15176 82.3221 5.85842C82.6422 5.08841 80.8013 3.3284 78.4 2.11838L76.279 1.01837L38.1395 0.908371L0 0.835037L0.280143 2.19172ZM65.6335 30.3153C67.9147 31.3053 69.0353 34.2754 67.9147 36.4387C66.2338 39.7021 61.7916 40.2888 59.1102 37.6121C57.0692 35.6321 57.4293 32.4054 59.7905 30.7553C61.7515 29.3987 63.2723 29.2887 65.6335 30.3153Z" fill="#E53E3E"/>
<path d="M94.1381 17.6603V3.25779H102.602V17.6603H99.7213V5.35594H97.0186V17.6603H94.1381ZM104.765 17.6603V3.25779H109.335C110.2 3.25779 110.905 3.42375 111.451 3.75566C111.996 4.07572 112.399 4.54395 112.66 5.16035C112.932 5.77676 113.069 6.52356 113.069 7.40075C113.069 8.43204 112.891 9.23811 112.535 9.81895C112.191 10.3998 111.717 10.8147 111.113 11.0636C110.508 11.3007 109.815 11.4192 109.032 11.4192H107.699V17.6603H104.765ZM107.699 9.35665H108.73C109.157 9.35665 109.483 9.29145 109.708 9.16106C109.945 9.01881 110.105 8.79951 110.188 8.50317C110.271 8.20682 110.313 7.82749 110.313 7.36519C110.313 6.92659 110.277 6.55912 110.206 6.26277C110.147 5.96642 110.004 5.73527 109.779 5.56931C109.554 5.40336 109.198 5.32038 108.712 5.32038H107.699V9.35665ZM118.594 17.8559C117.539 17.8559 116.704 17.6663 116.087 17.2869C115.471 16.9076 115.026 16.3683 114.754 15.6689C114.493 14.9576 114.362 14.1101 114.362 13.1262V7.75637C114.362 6.77249 114.493 5.93086 114.754 5.23148C115.026 4.53209 115.471 3.99867 116.087 3.63119C116.704 3.26372 117.539 3.07999 118.594 3.07999C119.661 3.07999 120.503 3.26965 121.119 3.64898C121.747 4.01645 122.192 4.54988 122.453 5.24926C122.725 5.93679 122.862 6.77249 122.862 7.75637V13.1262C122.862 14.1101 122.725 14.9576 122.453 15.6689C122.192 16.3683 121.747 16.9076 121.119 17.2869C120.503 17.6663 119.661 17.8559 118.594 17.8559ZM118.594 15.74C118.974 15.74 119.252 15.657 119.43 15.4911C119.608 15.3133 119.726 15.0821 119.786 14.7976C119.845 14.5013 119.874 14.1871 119.874 13.8552V7.04513C119.874 6.71322 119.845 6.40502 119.786 6.12052C119.726 5.83603 119.608 5.6108 119.43 5.44485C119.252 5.26704 118.974 5.17813 118.594 5.17813C118.239 5.17813 117.972 5.26704 117.794 5.44485C117.616 5.6108 117.498 5.83603 117.438 6.12052C117.379 6.40502 117.35 6.71322 117.35 7.04513V13.8552C117.35 14.1871 117.373 14.5013 117.421 14.7976C117.48 15.0821 117.598 15.3133 117.776 15.4911C117.954 15.657 118.227 15.74 118.594 15.74ZM124.821 17.6603V3.25779H133.284V17.6603H130.404V5.35594H127.701V17.6603H124.821ZM135.305 20.4875V18.4249C135.471 18.4368 135.625 18.4427 135.768 18.4427C135.922 18.4546 136.058 18.4605 136.177 18.4605C136.461 18.4605 136.71 18.4368 136.923 18.3894C137.149 18.3419 137.338 18.259 137.492 18.1404C137.658 18.0337 137.783 17.8915 137.866 17.7137C137.949 17.5359 137.99 17.3284 137.99 17.0913C137.99 16.9135 137.978 16.7535 137.955 16.6113C137.943 16.469 137.925 16.3208 137.901 16.1667L134.736 3.25779H137.475L138.701 9.23218L139.324 13.2329L139.804 9.2144L140.853 3.25779H143.609L140.782 16.2556C140.604 17.0617 140.402 17.7374 140.177 18.2827C139.952 18.8398 139.679 19.2784 139.359 19.5985C139.039 19.9304 138.648 20.1674 138.186 20.3097C137.735 20.4638 137.178 20.5408 136.514 20.5408C136.348 20.5408 136.165 20.5349 135.963 20.5231C135.762 20.5112 135.542 20.4994 135.305 20.4875ZM148.912 17.8559C147.845 17.8559 146.997 17.6544 146.369 17.2514C145.753 16.8483 145.32 16.2912 145.071 15.58C144.822 14.8569 144.698 14.0212 144.698 13.0729V7.89861C144.698 6.90288 144.822 6.0494 145.071 5.33816C145.32 4.61507 145.753 4.05794 146.369 3.66676C146.997 3.27558 147.845 3.07999 148.912 3.07999C149.943 3.07999 150.749 3.25187 151.33 3.59563C151.923 3.9394 152.337 4.42541 152.575 5.05367C152.823 5.68193 152.948 6.41094 152.948 7.24072V8.44982H150.103V7.09847C150.103 6.76656 150.085 6.45836 150.05 6.17387C150.014 5.87752 149.913 5.64044 149.747 5.46263C149.593 5.27297 149.321 5.17813 148.929 5.17813C148.538 5.17813 148.254 5.27297 148.076 5.46263C147.898 5.65229 147.786 5.90122 147.738 6.20943C147.691 6.50578 147.667 6.83769 147.667 7.20516V13.7485C147.667 14.1516 147.697 14.5072 147.756 14.8154C147.827 15.1117 147.951 15.3429 148.129 15.5088C148.319 15.6629 148.586 15.74 148.929 15.74C149.309 15.74 149.575 15.6511 149.73 15.4733C149.896 15.2836 149.996 15.0347 150.032 14.7265C150.079 14.4183 150.103 14.0923 150.103 13.7485V12.3438H152.948V13.5352C152.948 14.3768 152.829 15.1236 152.592 15.7756C152.355 16.4157 151.946 16.9254 151.365 17.3047C150.785 17.6722 149.967 17.8559 148.912 17.8559ZM154.775 17.6603V3.25779H157.708V9.10772H158.117L160.34 3.25779H163.256L160.571 10.0323L163.398 17.6603H160.393L158.117 11.2236H157.708V17.6603H154.775ZM163.943 17.6603L166.734 3.25779H169.988L172.762 17.6603H170.042L169.526 14.4953H167.25L166.699 17.6603H163.943ZM167.517 12.6995H169.242L168.37 6.8851L167.517 12.6995ZM178.702 17.6603V3.25779H181.636V9.17884H184.179V3.25779H187.113V17.6603H184.179V11.277H181.636V17.6603H178.702ZM188.617 17.6603L191.409 3.25779H194.663L197.437 17.6603H194.716L194.2 14.4953H191.925L191.373 17.6603H188.617ZM192.191 12.6995H193.916L193.045 6.8851L192.191 12.6995ZM203.288 17.6603L203.537 3.25779H206.649L208.427 12.3438L210.329 3.25779H213.334L213.583 17.6603H211.45L211.218 7.89861L209.387 17.6603H207.555L205.635 7.82749L205.44 17.6603H203.288ZM215.74 17.6603V3.25779H218.674V9.10772H219.083L221.306 3.25779H224.222L221.537 10.0323L224.364 17.6603H221.359L219.083 11.2236H218.674V17.6603H215.74ZM224.908 17.6603L227.7 3.25779H230.954L233.728 17.6603H231.007L230.492 14.4953H228.216L227.664 17.6603H224.908ZM228.482 12.6995H230.207L229.336 6.8851L228.482 12.6995ZM234.405 20.4519V15.5622H234.849C235.11 15.4674 235.353 15.3133 235.579 15.0999C235.804 14.8747 236.005 14.5842 236.183 14.2286C236.373 13.8611 236.545 13.4048 236.699 12.8595C236.853 12.3142 236.983 11.6504 237.09 10.868C237.197 10.0857 237.285 9.17291 237.357 8.12977L237.712 3.25779H244.273V15.5622H245.838V20.4519H243.918L243.704 17.6603H236.628L236.325 20.4519H234.405ZM237.623 15.5622H241.517V5.35594H239.97L239.81 8.48539C239.751 9.55224 239.668 10.4591 239.561 11.2059C239.455 11.9527 239.324 12.575 239.17 13.0729C239.028 13.5589 238.874 13.956 238.708 14.2642C238.542 14.5724 238.364 14.8213 238.175 15.011C237.985 15.2006 237.801 15.3844 237.623 15.5622Z" fill="black"/>
<path d="M98.5232 26.6467V27.3239C98.5232 27.7667 98.4653 28.1675 98.3495 28.5264C98.2367 28.8824 98.0717 29.1877 97.8547 29.4424C97.6405 29.697 97.3829 29.8924 97.082 30.0284C96.781 30.1644 96.4424 30.2324 96.0662 30.2324C95.6986 30.2324 95.3629 30.1644 95.059 30.0284C94.7581 29.8924 94.499 29.697 94.282 29.4424C94.0649 29.1877 93.8971 28.8824 93.7784 28.5264C93.6598 28.1675 93.6004 27.7667 93.6004 27.3239V26.6467C93.6004 26.2039 93.6583 25.8046 93.7741 25.4486C93.8927 25.0897 94.0606 24.783 94.2776 24.5283C94.4947 24.2736 94.7537 24.0783 95.0547 23.9423C95.3557 23.8062 95.6899 23.7382 96.0575 23.7382C96.4337 23.7382 96.7723 23.8062 97.0733 23.9423C97.3743 24.0783 97.6333 24.2736 97.8503 24.5283C98.0674 24.783 98.2338 25.0897 98.3495 25.4486C98.4653 25.8046 98.5232 26.2039 98.5232 26.6467ZM97.9936 27.3239V26.6381C97.9936 26.2647 97.9502 25.929 97.8633 25.6309C97.7794 25.3328 97.6535 25.0782 97.4857 24.8669C97.3207 24.6556 97.1181 24.4936 96.8779 24.3807C96.6377 24.2678 96.3642 24.2114 96.0575 24.2114C95.7594 24.2114 95.4917 24.2678 95.2544 24.3807C95.0171 24.4936 94.8145 24.6556 94.6466 24.8669C94.4817 25.0782 94.3543 25.3328 94.2646 25.6309C94.1778 25.929 94.1344 26.2647 94.1344 26.6381V27.3239C94.1344 27.7002 94.1778 28.0388 94.2646 28.3397C94.3543 28.6378 94.4831 28.8939 94.651 29.1081C94.8188 29.3194 95.0214 29.4814 95.2587 29.5943C95.4989 29.7072 95.7681 29.7636 96.0662 29.7636C96.3758 29.7636 96.6493 29.7072 96.8866 29.5943C97.1239 29.4814 97.3251 29.3194 97.49 29.1081C97.655 28.8939 97.7794 28.6378 97.8633 28.3397C97.9502 28.0388 97.9936 27.7002 97.9936 27.3239ZM105.03 27.8362V27.9273C105.03 28.2717 104.993 28.5857 104.918 28.8693C104.845 29.1501 104.737 29.3932 104.592 29.5986C104.45 29.8041 104.274 29.9618 104.062 30.0718C103.854 30.1818 103.615 30.2368 103.346 30.2368C103.152 30.2368 102.98 30.2122 102.829 30.163C102.679 30.1138 102.55 30.0472 102.443 29.9633C102.339 29.8794 102.255 29.7824 102.191 29.6724C102.131 29.5625 102.089 29.4482 102.065 29.3295V26.3342C102.094 26.1953 102.141 26.0679 102.204 25.9522C102.268 25.8335 102.352 25.7308 102.456 25.644C102.56 25.5542 102.685 25.4848 102.829 25.4356C102.974 25.3864 103.144 25.3618 103.337 25.3618C103.554 25.3618 103.753 25.4009 103.932 25.479C104.112 25.5542 104.269 25.6642 104.405 25.8089C104.541 25.9507 104.656 26.1229 104.748 26.3255C104.841 26.5281 104.91 26.7567 104.957 27.0114C105.006 27.2661 105.03 27.541 105.03 27.8362ZM104.514 27.9273V27.8362C104.514 27.6104 104.498 27.3963 104.466 27.1937C104.434 26.9911 104.385 26.8059 104.318 26.6381C104.252 26.4673 104.167 26.3212 104.062 26.1996C103.961 26.0752 103.84 25.9797 103.698 25.9131C103.559 25.8436 103.4 25.8089 103.22 25.8089C103.021 25.8089 102.86 25.8335 102.738 25.8827C102.617 25.9319 102.526 25.9912 102.465 26.0607C102.404 26.1301 102.361 26.1938 102.335 26.2517V29.438C102.366 29.4814 102.417 29.5306 102.487 29.5856C102.559 29.6406 102.656 29.6884 102.777 29.7289C102.899 29.7694 103.049 29.7896 103.229 29.7896C103.452 29.7896 103.644 29.7433 103.806 29.6507C103.968 29.5581 104.101 29.4279 104.206 29.26C104.31 29.0922 104.386 28.8954 104.436 28.6697C104.488 28.4439 104.514 28.1965 104.514 27.9273ZM99.552 27.9273V27.8362C99.552 27.541 99.5752 27.2661 99.6215 27.0114C99.6707 26.7567 99.7416 26.5281 99.8342 26.3255C99.9297 26.1229 100.045 25.9507 100.181 25.8089C100.317 25.6642 100.475 25.5542 100.655 25.479C100.834 25.4009 101.032 25.3618 101.249 25.3618C101.44 25.3618 101.607 25.3864 101.749 25.4356C101.893 25.4848 102.016 25.5542 102.118 25.644C102.219 25.7308 102.301 25.8335 102.365 25.9522C102.429 26.0679 102.476 26.1953 102.508 26.3342V29.2904C102.485 29.4149 102.442 29.535 102.378 29.6507C102.317 29.7636 102.235 29.8649 102.131 29.9546C102.029 30.0414 101.903 30.1094 101.753 30.1586C101.605 30.2107 101.435 30.2368 101.241 30.2368C100.972 30.2368 100.731 30.1818 100.52 30.0718C100.312 29.9618 100.135 29.8041 99.9905 29.5986C99.8486 29.3932 99.7401 29.1501 99.6649 28.8693C99.5896 28.5857 99.552 28.2717 99.552 27.9273ZM100.077 27.8362V27.9273C100.077 28.1965 100.1 28.4439 100.147 28.6697C100.196 28.8954 100.271 29.0922 100.372 29.26C100.477 29.4279 100.608 29.5581 100.768 29.6507C100.927 29.7433 101.116 29.7896 101.336 29.7896C101.519 29.7896 101.67 29.7679 101.792 29.7245C101.914 29.6782 102.009 29.6247 102.078 29.5639C102.151 29.5031 102.203 29.4482 102.235 29.399V26.2517C102.209 26.1938 102.165 26.1301 102.105 26.0607C102.044 25.9912 101.953 25.9319 101.831 25.8827C101.712 25.8335 101.55 25.8089 101.345 25.8089C101.122 25.8089 100.93 25.861 100.768 25.9652C100.608 26.0694 100.477 26.2141 100.372 26.3993C100.271 26.5845 100.196 26.8001 100.147 27.0461C100.1 27.2892 100.077 27.5526 100.077 27.8362ZM102.018 31.9515V23.4778H102.539V31.9515H102.018ZM106.749 29.3035L109.289 25.4486H109.81V30.1456H109.289V26.2908L106.749 30.1456H106.237V25.4486H106.749V29.3035ZM111.238 30.1456V25.4486H111.755V29.6985H114.29V25.4486H114.811V30.1456H111.238ZM115.284 29.6985L115.245 31.5391H114.772V30.1456H114.216V29.6985H115.284ZM116.821 29.3035L119.36 25.4486H119.881V30.1456H119.36V26.2908L116.821 30.1456H116.308V25.4486H116.821V29.3035ZM124.131 29.3035V26.8811C124.131 26.6583 124.085 26.4659 123.992 26.3038C123.899 26.1417 123.763 26.0173 123.584 25.9305C123.405 25.8436 123.183 25.8002 122.92 25.8002C122.677 25.8002 122.46 25.8436 122.269 25.9305C122.081 26.0144 121.932 26.1287 121.822 26.2734C121.714 26.4152 121.661 26.5729 121.661 26.7466L121.14 26.7422C121.14 26.5657 121.183 26.395 121.27 26.23C121.357 26.065 121.48 25.9174 121.639 25.7872C121.798 25.657 121.988 25.5542 122.208 25.479C122.431 25.4009 122.675 25.3618 122.942 25.3618C123.277 25.3618 123.572 25.4182 123.827 25.5311C124.085 25.644 124.286 25.8133 124.431 26.039C124.575 26.2647 124.648 26.5483 124.648 26.8898V29.1602C124.648 29.3223 124.659 29.4901 124.682 29.6638C124.708 29.8374 124.745 29.9807 124.791 30.0935V30.1456H124.24C124.205 30.0414 124.177 29.9112 124.157 29.7549C124.14 29.5957 124.131 29.4453 124.131 29.3035ZM124.253 27.4108L124.261 27.8101H123.241C122.975 27.8101 122.736 27.8347 122.525 27.8839C122.316 27.9302 122.14 27.9997 121.995 28.0923C121.851 28.182 121.739 28.2905 121.661 28.4179C121.586 28.5452 121.548 28.6899 121.548 28.852C121.548 29.0198 121.59 29.1732 121.674 29.3121C121.761 29.451 121.882 29.5625 122.039 29.6464C122.198 29.7274 122.386 29.7679 122.603 29.7679C122.892 29.7679 123.147 29.7144 123.367 29.6073C123.59 29.5002 123.774 29.3599 123.918 29.1862C124.063 29.0126 124.16 28.823 124.209 28.6176L124.435 28.9171C124.397 29.0618 124.328 29.2108 124.227 29.3642C124.128 29.5147 123.999 29.6565 123.84 29.7896C123.681 29.9199 123.493 30.027 123.276 30.1109C123.062 30.1919 122.819 30.2324 122.547 30.2324C122.24 30.2324 121.972 30.1746 121.743 30.0588C121.518 29.943 121.341 29.7853 121.214 29.5856C121.089 29.383 121.027 29.1544 121.027 28.8997C121.027 28.6682 121.076 28.4613 121.175 28.279C121.273 28.0937 121.415 27.9375 121.6 27.8101C121.788 27.6799 122.014 27.5815 122.277 27.5149C122.544 27.4455 122.842 27.4108 123.172 27.4108H124.253ZM129.227 25.4486V25.9001H126.848V25.4486H129.227ZM129.648 25.4486V30.1456H129.132V25.4486H129.648ZM126.71 25.4486H127.226L127.122 27.6495C127.105 28.0055 127.076 28.3209 127.035 28.5959C126.998 28.8708 126.945 29.1067 126.879 29.3035C126.812 29.4974 126.727 29.6565 126.623 29.781C126.521 29.9054 126.398 29.998 126.254 30.0588C126.109 30.1167 125.94 30.1456 125.746 30.1456H125.551V29.6768L125.711 29.6724C125.836 29.6667 125.944 29.6406 126.037 29.5943C126.132 29.548 126.213 29.4742 126.28 29.3729C126.349 29.2716 126.406 29.1385 126.449 28.9735C126.495 28.8086 126.532 28.6074 126.558 28.3701C126.587 28.1299 126.608 27.8478 126.623 27.5236L126.71 25.4486ZM131.437 27.1503H132.969C133.34 27.1503 133.652 27.2154 133.907 27.3456C134.162 27.473 134.354 27.6495 134.484 27.8752C134.618 28.101 134.684 28.3557 134.684 28.6393C134.684 28.8534 134.646 29.0531 134.571 29.2383C134.499 29.4207 134.389 29.5798 134.241 29.7159C134.097 29.8519 133.917 29.9575 133.703 30.0327C133.492 30.108 133.247 30.1456 132.969 30.1456H131.107V25.4486H131.624V29.6985H132.969C133.256 29.6985 133.487 29.6493 133.664 29.5509C133.84 29.4496 133.968 29.3194 134.046 29.1602C134.127 29.001 134.167 28.8317 134.167 28.6523C134.167 28.4758 134.127 28.3079 134.046 28.1487C133.968 27.9867 133.84 27.855 133.664 27.7537C133.487 27.6495 133.256 27.5974 132.969 27.5974H131.437V27.1503ZM139.012 27.5497V27.9925H136.225V27.5497H139.012ZM136.36 25.4486V30.1456H135.843V25.4486H136.36ZM139.411 25.4486V30.1456H138.891V25.4486H139.411ZM140.523 27.8709V27.7277C140.523 27.3862 140.572 27.0707 140.67 26.7813C140.769 26.4919 140.909 26.2416 141.091 26.0303C141.277 25.819 141.498 25.6555 141.756 25.5398C142.013 25.4211 142.3 25.3618 142.615 25.3618C142.934 25.3618 143.221 25.4211 143.479 25.5398C143.737 25.6555 143.958 25.819 144.143 26.0303C144.328 26.2416 144.47 26.4919 144.569 26.7813C144.667 27.0707 144.716 27.3862 144.716 27.7277V27.8709C144.716 28.2124 144.667 28.5279 144.569 28.8173C144.47 29.1038 144.328 29.3527 144.143 29.5639C143.961 29.7752 143.741 29.9401 143.483 30.0588C143.226 30.1746 142.939 30.2324 142.624 30.2324C142.306 30.2324 142.018 30.1746 141.76 30.0588C141.502 29.9401 141.281 29.7752 141.096 29.5639C140.911 29.3527 140.769 29.1038 140.67 28.8173C140.572 28.5279 140.523 28.2124 140.523 27.8709ZM141.039 27.7277V27.8709C141.039 28.1285 141.074 28.373 141.144 28.6045C141.213 28.8332 141.314 29.0372 141.447 29.2166C141.581 29.3932 141.746 29.5321 141.942 29.6334C142.139 29.7347 142.366 29.7853 142.624 29.7853C142.879 29.7853 143.103 29.7347 143.297 29.6334C143.494 29.5321 143.658 29.3932 143.792 29.2166C143.925 29.0372 144.025 28.8332 144.091 28.6045C144.161 28.373 144.195 28.1285 144.195 27.8709V27.7277C144.195 27.473 144.161 27.2313 144.091 27.0027C144.025 26.7741 143.923 26.57 143.787 26.3906C143.654 26.2112 143.489 26.0694 143.292 25.9652C143.096 25.861 142.87 25.8089 142.615 25.8089C142.36 25.8089 142.135 25.861 141.938 25.9652C141.744 26.0694 141.579 26.2112 141.443 26.3906C141.31 26.57 141.209 26.7741 141.139 27.0027C141.073 27.2313 141.039 27.473 141.039 27.7277ZM147.607 30.2324C147.301 30.2324 147.018 30.176 146.761 30.0631C146.506 29.9503 146.283 29.7911 146.092 29.5856C145.904 29.3801 145.758 29.137 145.654 28.8563C145.553 28.5727 145.502 28.263 145.502 27.9273V27.7407C145.502 27.3789 145.556 27.0519 145.663 26.7596C145.77 26.4673 145.917 26.217 146.105 26.0086C146.293 25.8002 146.508 25.6411 146.748 25.5311C146.991 25.4182 147.246 25.3618 147.512 25.3618C147.81 25.3618 148.075 25.4153 148.306 25.5224C148.538 25.6266 148.732 25.7756 148.888 25.9695C149.047 26.1605 149.167 26.3877 149.248 26.6511C149.329 26.9115 149.37 27.1995 149.37 27.5149V27.8318H145.815V27.3891H148.853V27.3283C148.847 27.0649 148.794 26.8189 148.693 26.5903C148.594 26.3588 148.447 26.1707 148.25 26.026C148.053 25.8813 147.807 25.8089 147.512 25.8089C147.292 25.8089 147.089 25.8552 146.904 25.9478C146.722 26.0404 146.564 26.1736 146.431 26.3472C146.301 26.5179 146.199 26.722 146.127 26.9593C146.058 27.1937 146.023 27.4542 146.023 27.7407V27.9273C146.023 28.1878 146.061 28.4309 146.136 28.6566C146.214 28.8795 146.324 29.0763 146.466 29.247C146.61 29.4178 146.781 29.5509 146.978 29.6464C147.175 29.7419 147.392 29.7896 147.629 29.7896C147.907 29.7896 148.153 29.739 148.367 29.6377C148.581 29.5335 148.774 29.37 148.944 29.1472L149.27 29.399C149.169 29.5494 149.041 29.6884 148.888 29.8157C148.737 29.943 148.557 30.0443 148.345 30.1196C148.134 30.1948 147.888 30.2324 147.607 30.2324ZM152.278 27.8709V27.7277C152.278 27.3862 152.328 27.0707 152.426 26.7813C152.524 26.4919 152.665 26.2416 152.847 26.0303C153.032 25.819 153.254 25.6555 153.511 25.5398C153.769 25.4211 154.055 25.3618 154.371 25.3618C154.689 25.3618 154.977 25.4211 155.235 25.5398C155.492 25.6555 155.714 25.819 155.899 26.0303C156.084 26.2416 156.226 26.4919 156.324 26.7813C156.423 27.0707 156.472 27.3862 156.472 27.7277V27.8709C156.472 28.2124 156.423 28.5279 156.324 28.8173C156.226 29.1038 156.084 29.3527 155.899 29.5639C155.716 29.7752 155.496 29.9401 155.239 30.0588C154.981 30.1746 154.695 30.2324 154.379 30.2324C154.061 30.2324 153.773 30.1746 153.516 30.0588C153.258 29.9401 153.037 29.7752 152.851 29.5639C152.666 29.3527 152.524 29.1038 152.426 28.8173C152.328 28.5279 152.278 28.2124 152.278 27.8709ZM152.795 27.7277V27.8709C152.795 28.1285 152.83 28.373 152.899 28.6045C152.969 28.8332 153.07 29.0372 153.203 29.2166C153.336 29.3932 153.501 29.5321 153.698 29.6334C153.895 29.7347 154.122 29.7853 154.379 29.7853C154.634 29.7853 154.858 29.7347 155.052 29.6334C155.249 29.5321 155.414 29.3932 155.547 29.2166C155.68 29.0372 155.78 28.8332 155.847 28.6045C155.916 28.373 155.951 28.1285 155.951 27.8709V27.7277C155.951 27.473 155.916 27.2313 155.847 27.0027C155.78 26.7741 155.679 26.57 155.543 26.3906C155.41 26.2112 155.245 26.0694 155.048 25.9652C154.851 25.861 154.625 25.8089 154.371 25.8089C154.116 25.8089 153.89 25.861 153.694 25.9652C153.5 26.0694 153.335 26.2112 153.199 26.3906C153.066 26.57 152.964 26.7741 152.895 27.0027C152.828 27.2313 152.795 27.473 152.795 27.7277ZM162.827 27.8362V27.9273C162.827 28.2717 162.789 28.5857 162.714 28.8693C162.642 29.1501 162.533 29.3932 162.389 29.5986C162.247 29.8041 162.07 29.9618 161.859 30.0718C161.651 30.1818 161.412 30.2368 161.143 30.2368C160.949 30.2368 160.777 30.2122 160.626 30.163C160.476 30.1138 160.347 30.0472 160.24 29.9633C160.136 29.8794 160.052 29.7824 159.988 29.6724C159.927 29.5625 159.885 29.4482 159.862 29.3295V26.3342C159.891 26.1953 159.937 26.0679 160.001 25.9522C160.065 25.8335 160.149 25.7308 160.253 25.644C160.357 25.5542 160.481 25.4848 160.626 25.4356C160.771 25.3864 160.94 25.3618 161.134 25.3618C161.351 25.3618 161.549 25.4009 161.729 25.479C161.908 25.5542 162.066 25.6642 162.202 25.8089C162.338 25.9507 162.452 26.1229 162.545 26.3255C162.638 26.5281 162.707 26.7567 162.753 27.0114C162.802 27.2661 162.827 27.541 162.827 27.8362ZM162.31 27.9273V27.8362C162.31 27.6104 162.295 27.3963 162.263 27.1937C162.231 26.9911 162.182 26.8059 162.115 26.6381C162.049 26.4673 161.963 26.3212 161.859 26.1996C161.758 26.0752 161.636 25.9797 161.494 25.9131C161.355 25.8436 161.196 25.8089 161.017 25.8089C160.817 25.8089 160.657 25.8335 160.535 25.8827C160.413 25.9319 160.322 25.9912 160.262 26.0607C160.201 26.1301 160.157 26.1938 160.131 26.2517V29.438C160.163 29.4814 160.214 29.5306 160.283 29.5856C160.356 29.6406 160.453 29.6884 160.574 29.7289C160.696 29.7694 160.846 29.7896 161.026 29.7896C161.248 29.7896 161.441 29.7433 161.603 29.6507C161.765 29.5581 161.898 29.4279 162.002 29.26C162.106 29.0922 162.183 28.8954 162.232 28.6697C162.284 28.4439 162.31 28.1965 162.31 27.9273ZM157.349 27.9273V27.8362C157.349 27.541 157.372 27.2661 157.418 27.0114C157.467 26.7567 157.538 26.5281 157.631 26.3255C157.726 26.1229 157.842 25.9507 157.978 25.8089C158.114 25.6642 158.272 25.5542 158.451 25.479C158.631 25.4009 158.829 25.3618 159.046 25.3618C159.237 25.3618 159.403 25.3864 159.545 25.4356C159.69 25.4848 159.813 25.5542 159.914 25.644C160.016 25.7308 160.098 25.8335 160.162 25.9522C160.225 26.0679 160.273 26.1953 160.305 26.3342V29.2904C160.282 29.4149 160.238 29.535 160.175 29.6507C160.114 29.7636 160.031 29.8649 159.927 29.9546C159.826 30.0414 159.7 30.1094 159.55 30.1586C159.402 30.2107 159.231 30.2368 159.037 30.2368C158.768 30.2368 158.528 30.1818 158.317 30.0718C158.108 29.9618 157.932 29.8041 157.787 29.5986C157.645 29.3932 157.537 29.1501 157.462 28.8693C157.386 28.5857 157.349 28.2717 157.349 27.9273ZM157.874 27.8362V27.9273C157.874 28.1965 157.897 28.4439 157.943 28.6697C157.993 28.8954 158.068 29.0922 158.169 29.26C158.273 29.4279 158.405 29.5581 158.564 29.6507C158.723 29.7433 158.913 29.7896 159.133 29.7896C159.315 29.7896 159.467 29.7679 159.589 29.7245C159.71 29.6782 159.806 29.6247 159.875 29.5639C159.948 29.5031 160 29.4482 160.031 29.399V26.2517C160.005 26.1938 159.962 26.1301 159.901 26.0607C159.84 25.9912 159.749 25.9319 159.628 25.8827C159.509 25.8335 159.347 25.8089 159.142 25.8089C158.919 25.8089 158.726 25.861 158.564 25.9652C158.405 26.0694 158.273 26.2141 158.169 26.3993C158.068 26.5845 157.993 26.8001 157.943 27.0461C157.897 27.2892 157.874 27.5526 157.874 27.8362ZM159.814 31.9515V23.4778H160.335V31.9515H159.814ZM163.713 27.8709V27.7277C163.713 27.3862 163.762 27.0707 163.86 26.7813C163.959 26.4919 164.099 26.2416 164.281 26.0303C164.467 25.819 164.688 25.6555 164.946 25.5398C165.203 25.4211 165.49 25.3618 165.805 25.3618C166.123 25.3618 166.411 25.4211 166.669 25.5398C166.926 25.6555 167.148 25.819 167.333 26.0303C167.518 26.2416 167.66 26.4919 167.759 26.7813C167.857 27.0707 167.906 27.3862 167.906 27.7277V27.8709C167.906 28.2124 167.857 28.5279 167.759 28.8173C167.66 29.1038 167.518 29.3527 167.333 29.5639C167.151 29.7752 166.931 29.9401 166.673 30.0588C166.416 30.1746 166.129 30.2324 165.814 30.2324C165.495 30.2324 165.207 30.1746 164.95 30.0588C164.692 29.9401 164.471 29.7752 164.286 29.5639C164.1 29.3527 163.959 29.1038 163.86 28.8173C163.762 28.5279 163.713 28.2124 163.713 27.8709ZM164.229 27.7277V27.8709C164.229 28.1285 164.264 28.373 164.333 28.6045C164.403 28.8332 164.504 29.0372 164.637 29.2166C164.77 29.3932 164.935 29.5321 165.132 29.6334C165.329 29.7347 165.556 29.7853 165.814 29.7853C166.068 29.7853 166.293 29.7347 166.487 29.6334C166.683 29.5321 166.848 29.3932 166.981 29.2166C167.115 29.0372 167.214 28.8332 167.281 28.6045C167.35 28.373 167.385 28.1285 167.385 27.8709V27.7277C167.385 27.473 167.35 27.2313 167.281 27.0027C167.214 26.7741 167.113 26.57 166.977 26.3906C166.844 26.2112 166.679 26.0694 166.482 25.9652C166.285 25.861 166.06 25.8089 165.805 25.8089C165.55 25.8089 165.325 25.861 165.128 25.9652C164.934 26.0694 164.769 26.2112 164.633 26.3906C164.5 26.57 164.399 26.7741 164.329 27.0027C164.263 27.2313 164.229 27.473 164.229 27.7277ZM169.495 26.3515V31.9515H168.974V25.4486H169.46L169.495 26.3515ZM172.759 27.7537V27.8449C172.759 28.195 172.719 28.5163 172.638 28.8086C172.557 29.1009 172.44 29.3541 172.286 29.5683C172.136 29.7795 171.949 29.943 171.726 30.0588C171.503 30.1746 171.25 30.2324 170.967 30.2324C170.686 30.2324 170.435 30.189 170.216 30.1022C169.996 30.0154 169.806 29.8924 169.647 29.7332C169.491 29.5711 169.365 29.383 169.269 29.1689C169.177 28.9518 169.111 28.7145 169.074 28.4569V27.2545C169.117 26.9709 169.188 26.7133 169.287 26.4818C169.385 26.2503 169.511 26.0506 169.664 25.8827C169.82 25.7149 170.006 25.5861 170.22 25.4964C170.434 25.4066 170.679 25.3618 170.954 25.3618C171.24 25.3618 171.495 25.4182 171.718 25.5311C171.943 25.6411 172.133 25.8017 172.286 26.0129C172.442 26.2213 172.56 26.4731 172.638 26.7683C172.719 27.0606 172.759 27.3891 172.759 27.7537ZM172.238 27.8449V27.7537C172.238 27.4788 172.21 27.2241 172.152 26.9897C172.097 26.7553 172.011 26.5512 171.896 26.3776C171.783 26.2011 171.638 26.0636 171.461 25.9652C171.288 25.8668 171.081 25.8176 170.841 25.8176C170.592 25.8176 170.379 25.8596 170.203 25.9435C170.029 26.0245 169.884 26.133 169.768 26.2691C169.653 26.4022 169.561 26.5483 169.495 26.7075C169.428 26.8667 169.379 27.023 169.347 27.1763V28.5611C169.402 28.7811 169.491 28.9851 169.612 29.1732C169.734 29.3584 169.896 29.5075 170.098 29.6203C170.304 29.7303 170.554 29.7853 170.849 29.7853C171.087 29.7853 171.292 29.7361 171.466 29.6377C171.639 29.5393 171.783 29.4018 171.896 29.2253C172.011 29.0488 172.097 28.8433 172.152 28.6089C172.21 28.3745 172.238 28.1198 172.238 27.8449ZM176.51 29.4337L178.377 25.4486H178.893L176.692 30.1456H176.328L174.131 25.4486H174.648L176.51 29.4337ZM174.487 25.4486V30.1456H173.971V25.4486H174.487ZM178.498 30.1456V25.4486H179.019V30.1456H178.498ZM183.603 25.4486V25.9001H181.224V25.4486H183.603ZM184.024 25.4486V30.1456H183.508V25.4486H184.024ZM181.086 25.4486H181.602L181.498 27.6495C181.481 28.0055 181.452 28.3209 181.411 28.5959C181.373 28.8708 181.321 29.1067 181.255 29.3035C181.188 29.4974 181.103 29.6565 180.999 29.781C180.897 29.9054 180.774 29.998 180.63 30.0588C180.485 30.1167 180.316 30.1456 180.122 30.1456H179.926V29.6768L180.087 29.6724C180.212 29.6667 180.32 29.6406 180.413 29.5943C180.508 29.548 180.589 29.4742 180.656 29.3729C180.725 29.2716 180.782 29.1385 180.825 28.9735C180.871 28.8086 180.908 28.6074 180.934 28.3701C180.963 28.1299 180.984 27.8478 180.999 27.5236L181.086 25.4486ZM187.241 30.2324C186.934 30.2324 186.652 30.176 186.395 30.0631C186.14 29.9503 185.917 29.7911 185.726 29.5856C185.538 29.3801 185.392 29.137 185.288 28.8563C185.186 28.5727 185.136 28.263 185.136 27.9273V27.7407C185.136 27.3789 185.189 27.0519 185.296 26.7596C185.403 26.4673 185.551 26.217 185.739 26.0086C185.927 25.8002 186.141 25.6411 186.382 25.5311C186.625 25.4182 186.879 25.3618 187.146 25.3618C187.444 25.3618 187.708 25.4153 187.94 25.5224C188.172 25.6266 188.365 25.7756 188.522 25.9695C188.681 26.1605 188.801 26.3877 188.882 26.6511C188.963 26.9115 189.004 27.1995 189.004 27.5149V27.8318H185.448V27.3891H188.487V27.3283C188.481 27.0649 188.428 26.8189 188.326 26.5903C188.228 26.3588 188.08 26.1707 187.884 26.026C187.687 25.8813 187.441 25.8089 187.146 25.8089C186.926 25.8089 186.723 25.8552 186.538 25.9478C186.356 26.0404 186.198 26.1736 186.065 26.3472C185.934 26.5179 185.833 26.722 185.761 26.9593C185.691 27.1937 185.657 27.4542 185.657 27.7407V27.9273C185.657 28.1878 185.694 28.4309 185.769 28.6566C185.848 28.8795 185.958 29.0763 186.099 29.247C186.244 29.4178 186.415 29.5509 186.612 29.6464C186.808 29.7419 187.026 29.7896 187.263 29.7896C187.541 29.7896 187.787 29.739 188.001 29.6377C188.215 29.5335 188.407 29.37 188.578 29.1472L188.904 29.399C188.802 29.5494 188.675 29.6884 188.522 29.8157C188.371 29.943 188.19 30.0443 187.979 30.1196C187.768 30.1948 187.522 30.2324 187.241 30.2324ZM193.232 27.5497V27.9925H190.445V27.5497H193.232ZM190.579 25.4486V30.1456H190.063V25.4486H190.579ZM193.631 25.4486V30.1456H193.11V25.4486H193.631ZM195.576 29.3035L198.115 25.4486H198.636V30.1456H198.115V26.2908L195.576 30.1456H195.064V25.4486H195.576V29.3035ZM201.844 30.2324C201.538 30.2324 201.255 30.176 200.998 30.0631C200.743 29.9503 200.52 29.7911 200.329 29.5856C200.141 29.3801 199.995 29.137 199.891 28.8563C199.79 28.5727 199.739 28.263 199.739 27.9273V27.7407C199.739 27.3789 199.793 27.0519 199.9 26.7596C200.007 26.4673 200.154 26.217 200.342 26.0086C200.53 25.8002 200.745 25.6411 200.985 25.5311C201.228 25.4182 201.483 25.3618 201.749 25.3618C202.047 25.3618 202.312 25.4153 202.543 25.5224C202.775 25.6266 202.969 25.7756 203.125 25.9695C203.284 26.1605 203.404 26.3877 203.485 26.6511C203.566 26.9115 203.607 27.1995 203.607 27.5149V27.8318H200.052V27.3891H203.09V27.3283C203.084 27.0649 203.031 26.8189 202.93 26.5903C202.831 26.3588 202.684 26.1707 202.487 26.026C202.29 25.8813 202.044 25.8089 201.749 25.8089C201.529 25.8089 201.326 25.8552 201.141 25.9478C200.959 26.0404 200.801 26.1736 200.668 26.3472C200.538 26.5179 200.436 26.722 200.364 26.9593C200.295 27.1937 200.26 27.4542 200.26 27.7407V27.9273C200.26 28.1878 200.298 28.4309 200.373 28.6566C200.451 28.8795 200.561 29.0763 200.703 29.247C200.847 29.4178 201.018 29.5509 201.215 29.6464C201.412 29.7419 201.629 29.7896 201.866 29.7896C202.144 29.7896 202.39 29.739 202.604 29.6377C202.818 29.5335 203.011 29.37 203.181 29.1472L203.507 29.399C203.406 29.5494 203.278 29.6884 203.125 29.8157C202.975 29.943 202.794 30.0443 202.582 30.1196C202.371 30.1948 202.125 30.2324 201.844 30.2324ZM209.984 25.4486V25.9001H207.236V25.4486H209.984ZM207.353 25.4486V30.1456H206.837V25.4486H207.353ZM210.409 25.4486V30.1456H209.888V25.4486H210.409ZM212.315 26.3515V31.9515H211.794V25.4486H212.28L212.315 26.3515ZM215.579 27.7537V27.8449C215.579 28.195 215.539 28.5163 215.458 28.8086C215.377 29.1009 215.26 29.3541 215.106 29.5683C214.956 29.7795 214.769 29.943 214.546 30.0588C214.323 30.1746 214.07 30.2324 213.787 30.2324C213.506 30.2324 213.256 30.189 213.036 30.1022C212.816 30.0154 212.626 29.8924 212.467 29.7332C212.311 29.5711 212.185 29.383 212.089 29.1689C211.997 28.9518 211.932 28.7145 211.894 28.4569V27.2545C211.937 26.9709 212.008 26.7133 212.107 26.4818C212.205 26.2503 212.331 26.0506 212.484 25.8827C212.641 25.7149 212.826 25.5861 213.04 25.4964C213.254 25.4066 213.499 25.3618 213.774 25.3618C214.06 25.3618 214.315 25.4182 214.538 25.5311C214.763 25.6411 214.953 25.8017 215.106 26.0129C215.263 26.2213 215.38 26.4731 215.458 26.7683C215.539 27.0606 215.579 27.3891 215.579 27.7537ZM215.059 27.8449V27.7537C215.059 27.4788 215.03 27.2241 214.972 26.9897C214.917 26.7553 214.831 26.5512 214.716 26.3776C214.603 26.2011 214.458 26.0636 214.281 25.9652C214.108 25.8668 213.901 25.8176 213.661 25.8176C213.412 25.8176 213.199 25.8596 213.023 25.9435C212.849 26.0245 212.704 26.133 212.588 26.2691C212.473 26.4022 212.382 26.5483 212.315 26.7075C212.248 26.8667 212.199 27.023 212.167 27.1763V28.5611C212.222 28.7811 212.311 28.9851 212.432 29.1732C212.554 29.3584 212.716 29.5075 212.918 29.6203C213.124 29.7303 213.374 29.7853 213.669 29.7853C213.907 29.7853 214.112 29.7361 214.286 29.6377C214.459 29.5393 214.603 29.4018 214.716 29.2253C214.831 29.0488 214.917 28.8433 214.972 28.6089C215.03 28.3745 215.059 28.1198 215.059 27.8449ZM216.448 27.8709V27.7277C216.448 27.3862 216.497 27.0707 216.595 26.7813C216.694 26.4919 216.834 26.2416 217.016 26.0303C217.202 25.819 217.423 25.6555 217.681 25.5398C217.938 25.4211 218.225 25.3618 218.54 25.3618C218.858 25.3618 219.146 25.4211 219.404 25.5398C219.661 25.6555 219.883 25.819 220.068 26.0303C220.253 26.2416 220.395 26.4919 220.494 26.7813C220.592 27.0707 220.641 27.3862 220.641 27.7277V27.8709C220.641 28.2124 220.592 28.5279 220.494 28.8173C220.395 29.1038 220.253 29.3527 220.068 29.5639C219.886 29.7752 219.666 29.9401 219.408 30.0588C219.151 30.1746 218.864 30.2324 218.549 30.2324C218.23 30.2324 217.942 30.1746 217.685 30.0588C217.427 29.9401 217.206 29.7752 217.021 29.5639C216.835 29.3527 216.694 29.1038 216.595 28.8173C216.497 28.5279 216.448 28.2124 216.448 27.8709ZM216.964 27.7277V27.8709C216.964 28.1285 216.999 28.373 217.068 28.6045C217.138 28.8332 217.239 29.0372 217.372 29.2166C217.505 29.3932 217.67 29.5321 217.867 29.6334C218.064 29.7347 218.291 29.7853 218.549 29.7853C218.803 29.7853 219.028 29.7347 219.222 29.6334C219.418 29.5321 219.583 29.3932 219.716 29.2166C219.85 29.0372 219.949 28.8332 220.016 28.6045C220.085 28.373 220.12 28.1285 220.12 27.8709V27.7277C220.12 27.473 220.085 27.2313 220.016 27.0027C219.949 26.7741 219.848 26.57 219.712 26.3906C219.579 26.2112 219.414 26.0694 219.217 25.9652C219.02 25.861 218.795 25.8089 218.54 25.8089C218.285 25.8089 218.06 25.861 217.863 25.9652C217.669 26.0694 217.504 26.2112 217.368 26.3906C217.235 26.57 217.134 26.7741 217.064 27.0027C216.998 27.2313 216.964 27.473 216.964 27.7277ZM224.9 25.4486V25.9001H222.152V25.4486H224.9ZM222.269 25.4486V30.1456H221.752V25.4486H222.269ZM225.325 25.4486V30.1456H224.804V25.4486H225.325ZM228.112 29.6768L229.575 25.4486H230.135L228.147 30.901C228.106 31.008 228.054 31.1267 227.99 31.2569C227.93 31.3872 227.849 31.5116 227.747 31.6303C227.649 31.7518 227.525 31.8502 227.374 31.9254C227.226 32.0036 227.046 32.0427 226.831 32.0427C226.776 32.0427 226.706 32.0354 226.619 32.0209C226.535 32.0094 226.474 31.9978 226.436 31.9862L226.432 31.5478C226.464 31.5565 226.51 31.5637 226.571 31.5695C226.632 31.5753 226.674 31.5782 226.697 31.5782C226.885 31.5782 227.043 31.5463 227.17 31.4827C227.3 31.419 227.409 31.3235 227.496 31.1961C227.582 31.0717 227.659 30.9154 227.726 30.7273L228.112 29.6768ZM226.745 25.4486L228.242 29.4814L228.381 30.0241L228.004 30.2368L226.18 25.4486H226.745ZM232.618 29.7853C232.838 29.7853 233.043 29.7448 233.234 29.6638C233.428 29.5798 233.588 29.4568 233.712 29.2948C233.839 29.1298 233.912 28.9287 233.929 28.6914H234.424C234.409 28.9894 234.318 29.2557 234.15 29.4901C233.985 29.7216 233.768 29.904 233.499 30.0371C233.233 30.1673 232.939 30.2324 232.618 30.2324C232.291 30.2324 232.002 30.1731 231.75 30.0545C231.501 29.9358 231.293 29.7708 231.125 29.5596C230.957 29.3454 230.83 29.0965 230.743 28.8129C230.659 28.5264 230.617 28.2182 230.617 27.8883V27.7059C230.617 27.376 230.659 27.0693 230.743 26.7856C230.83 26.4991 230.957 26.2503 231.125 26.039C231.293 25.8248 231.501 25.6584 231.75 25.5398C231.999 25.4211 232.287 25.3618 232.614 25.3618C232.949 25.3618 233.25 25.4298 233.517 25.5658C233.786 25.7018 234 25.8943 234.159 26.1432C234.321 26.3921 234.409 26.6872 234.424 27.0287H233.929C233.915 26.777 233.848 26.5599 233.729 26.3776C233.611 26.1953 233.454 26.0549 233.261 25.9565C233.067 25.8581 232.851 25.8089 232.614 25.8089C232.347 25.8089 232.12 25.861 231.932 25.9652C231.744 26.0665 231.591 26.2068 231.472 26.3863C231.356 26.5628 231.271 26.7654 231.216 26.994C231.161 27.2198 231.133 27.4571 231.133 27.7059V27.8883C231.133 28.1401 231.159 28.3803 231.212 28.6089C231.267 28.8346 231.352 29.0358 231.468 29.2123C231.586 29.3888 231.74 29.5292 231.928 29.6334C232.119 29.7347 232.349 29.7853 232.618 29.7853ZM236.021 25.4486V30.1456H235.501V25.4486H236.021ZM239.112 25.4486L236.959 27.9925H235.839L235.783 27.528H236.738L238.457 25.4486H239.112ZM238.643 30.1456L236.686 27.923L237.016 27.5236L239.329 30.1456H238.643ZM239.698 27.8709V27.7277C239.698 27.3862 239.747 27.0707 239.846 26.7813C239.944 26.4919 240.085 26.2416 240.267 26.0303C240.452 25.819 240.674 25.6555 240.931 25.5398C241.189 25.4211 241.475 25.3618 241.791 25.3618C242.109 25.3618 242.397 25.4211 242.655 25.5398C242.912 25.6555 243.134 25.819 243.319 26.0303C243.504 26.2416 243.646 26.4919 243.744 26.7813C243.843 27.0707 243.892 27.3862 243.892 27.7277V27.8709C243.892 28.2124 243.843 28.5279 243.744 28.8173C243.646 29.1038 243.504 29.3527 243.319 29.5639C243.136 29.7752 242.916 29.9401 242.659 30.0588C242.401 30.1746 242.115 30.2324 241.799 30.2324C241.481 30.2324 241.193 30.1746 240.935 30.0588C240.678 29.9401 240.457 29.7752 240.271 29.5639C240.086 29.3527 239.944 29.1038 239.846 28.8173C239.747 28.5279 239.698 28.2124 239.698 27.8709ZM240.215 27.7277V27.8709C240.215 28.1285 240.25 28.373 240.319 28.6045C240.389 28.8332 240.49 29.0372 240.623 29.2166C240.756 29.3932 240.921 29.5321 241.118 29.6334C241.315 29.7347 241.542 29.7853 241.799 29.7853C242.054 29.7853 242.278 29.7347 242.472 29.6334C242.669 29.5321 242.834 29.3932 242.967 29.2166C243.1 29.0372 243.2 28.8332 243.267 28.6045C243.336 28.373 243.371 28.1285 243.371 27.8709V27.7277C243.371 27.473 243.336 27.2313 243.267 27.0027C243.2 26.7741 243.099 26.57 242.963 26.3906C242.83 26.2112 242.665 26.0694 242.468 25.9652C242.271 25.861 242.045 25.8089 241.791 25.8089C241.536 25.8089 241.31 25.861 241.113 25.9652C240.92 26.0694 240.755 26.2112 240.619 26.3906C240.485 26.57 240.384 26.7741 240.315 27.0027C240.248 27.2313 240.215 27.473 240.215 27.7277ZM247.043 27.9794H245.394L245.385 27.5453H246.792C247.075 27.5453 247.311 27.5149 247.499 27.4542C247.69 27.3905 247.833 27.2964 247.929 27.172C248.027 27.0476 248.077 26.8942 248.077 26.7118C248.077 26.5729 248.048 26.4514 247.99 26.3472C247.935 26.243 247.851 26.1576 247.738 26.0911C247.628 26.0245 247.489 25.9753 247.321 25.9435C247.156 25.9088 246.964 25.8914 246.744 25.8914H245.541V30.1456H245.025V25.4486H246.744C247.03 25.4486 247.286 25.4747 247.512 25.5267C247.741 25.5759 247.936 25.6512 248.098 25.7525C248.26 25.8538 248.383 25.984 248.467 26.1432C248.554 26.2994 248.597 26.4847 248.597 26.6988C248.597 26.8435 248.57 26.9795 248.515 27.1069C248.46 27.2313 248.379 27.3442 248.272 27.4455C248.168 27.5439 248.039 27.6249 247.885 27.6886C247.732 27.7494 247.556 27.787 247.356 27.8015L247.043 27.9794ZM247.043 30.1456H245.233L245.433 29.7028H247.043C247.304 29.7028 247.525 29.6695 247.708 29.603C247.89 29.5364 248.027 29.438 248.12 29.3078C248.215 29.1776 248.263 29.0198 248.263 28.8346C248.263 28.661 248.215 28.5105 248.12 28.3832C248.027 28.2558 247.89 28.1574 247.708 28.088C247.525 28.0156 247.304 27.9794 247.043 27.9794H245.845L245.854 27.5453H247.395L247.616 27.7103C247.854 27.7305 248.059 27.7942 248.233 27.9013C248.406 28.0084 248.541 28.1444 248.637 28.3094C248.732 28.4714 248.78 28.6494 248.78 28.8433C248.78 29.0575 248.739 29.247 248.658 29.412C248.577 29.574 248.46 29.7101 248.307 29.82C248.156 29.9271 247.974 30.0081 247.76 30.0631C247.545 30.1181 247.307 30.1456 247.043 30.1456ZM95.81 37.9794H94.1604L94.1518 37.5453H95.5582C95.8419 37.5453 96.0777 37.5149 96.2658 37.4542C96.4568 37.3905 96.6001 37.2964 96.6956 37.172C96.794 37.0476 96.8432 36.8942 96.8432 36.7118C96.8432 36.5729 96.8143 36.4514 96.7564 36.3472C96.7014 36.243 96.6175 36.1576 96.5046 36.0911C96.3946 36.0245 96.2557 35.9753 96.0879 35.9435C95.9229 35.9088 95.7304 35.8914 95.5105 35.8914H94.308V40.1456H93.7914V35.4486H95.5105C95.797 35.4486 96.0531 35.4747 96.2789 35.5267C96.5075 35.5759 96.7028 35.6512 96.8649 35.7525C97.027 35.8538 97.15 35.984 97.2339 36.1432C97.3207 36.2994 97.3641 36.4847 97.3641 36.6988C97.3641 36.8435 97.3366 36.9795 97.2816 37.1069C97.2267 37.2313 97.1456 37.3442 97.0385 37.4455C96.9344 37.5439 96.8056 37.6249 96.6522 37.6886C96.4988 37.7494 96.3223 37.787 96.1226 37.8015L95.81 37.9794ZM95.81 40.1456H93.9998L94.1995 39.7028H95.81C96.0705 39.7028 96.2919 39.6695 96.4742 39.603C96.6565 39.5364 96.794 39.438 96.8866 39.3078C96.9821 39.1776 97.0299 39.0198 97.0299 38.8346C97.0299 38.661 96.9821 38.5105 96.8866 38.3832C96.794 38.2558 96.6565 38.1574 96.4742 38.088C96.2919 38.0156 96.0705 37.9794 95.81 37.9794H94.6119L94.6206 37.5453H96.1617L96.383 37.7103C96.6204 37.7305 96.8258 37.7942 96.9995 37.9013C97.1731 38.0084 97.3077 38.1444 97.4032 38.3094C97.4987 38.4714 97.5464 38.6494 97.5464 38.8433C97.5464 39.0575 97.5059 39.247 97.4249 39.412C97.3439 39.574 97.2267 39.7101 97.0733 39.82C96.9228 39.9271 96.7405 40.0081 96.5263 40.0631C96.3121 40.1181 96.0734 40.1456 95.81 40.1456ZM101.714 35.4486H102.23L102.152 37.1416C102.132 37.5931 102.081 37.9852 102 38.318C101.922 38.648 101.825 38.9301 101.71 39.1645C101.594 39.3961 101.466 39.5914 101.327 39.7506C101.191 39.9069 101.053 40.0385 100.911 40.1456H100.629L100.637 39.7028L100.768 39.6985C100.851 39.5972 100.938 39.4829 101.028 39.3555C101.121 39.2253 101.209 39.0661 101.293 38.878C101.377 38.6899 101.449 38.4555 101.51 38.1748C101.571 37.8941 101.611 37.5497 101.631 37.1416L101.714 35.4486ZM101.883 35.4486H104.483V40.1456H103.967V35.9348H101.883V35.4486ZM100.429 39.6985H104.974V41.5261H104.453V40.1456H100.924V41.5261H100.429V39.6985ZM107.791 40.2324C107.485 40.2324 107.202 40.176 106.945 40.0631C106.69 39.9503 106.467 39.7911 106.276 39.5856C106.088 39.3801 105.942 39.137 105.838 38.8563C105.737 38.5727 105.686 38.263 105.686 37.9273V37.7407C105.686 37.3789 105.739 37.0519 105.847 36.7596C105.954 36.4673 106.101 36.217 106.289 36.0086C106.477 35.8002 106.692 35.6411 106.932 35.5311C107.175 35.4182 107.43 35.3618 107.696 35.3618C107.994 35.3618 108.259 35.4153 108.49 35.5224C108.722 35.6266 108.916 35.7756 109.072 35.9695C109.231 36.1605 109.351 36.3877 109.432 36.6511C109.513 36.9115 109.554 37.1995 109.554 37.5149V37.8318H105.998V37.3891H109.037V37.3283C109.031 37.0649 108.978 36.8189 108.877 36.5903C108.778 36.3588 108.631 36.1707 108.434 36.026C108.237 35.8813 107.991 35.8089 107.696 35.8089C107.476 35.8089 107.273 35.8552 107.088 35.9478C106.906 36.0404 106.748 36.1736 106.615 36.3472C106.485 36.5179 106.383 36.722 106.311 36.9593C106.242 37.1937 106.207 37.4542 106.207 37.7407V37.9273C106.207 38.1878 106.244 38.4309 106.32 38.6566C106.398 38.8795 106.508 39.0763 106.65 39.247C106.794 39.4178 106.965 39.5509 107.162 39.6464C107.359 39.7419 107.576 39.7896 107.813 39.7896C108.091 39.7896 108.337 39.739 108.551 39.6377C108.765 39.5335 108.958 39.37 109.128 39.1472L109.454 39.399C109.353 39.5494 109.225 39.6884 109.072 39.8157C108.921 39.943 108.741 40.0443 108.529 40.1196C108.318 40.1948 108.072 40.2324 107.791 40.2324ZM113.76 35.4486V35.9001H111.012V35.4486H113.76ZM111.13 35.4486V40.1456H110.613V35.4486H111.13ZM114.186 35.4486V40.1456H113.665V35.4486H114.186ZM118.436 39.3035V36.8811C118.436 36.6583 118.389 36.4659 118.297 36.3038C118.204 36.1417 118.068 36.0173 117.889 35.9305C117.709 35.8436 117.488 35.8002 117.224 35.8002C116.981 35.8002 116.764 35.8436 116.573 35.9305C116.385 36.0144 116.236 36.1287 116.126 36.2734C116.019 36.4152 115.965 36.5729 115.965 36.7466L115.445 36.7422C115.445 36.5657 115.488 36.395 115.575 36.23C115.662 36.065 115.785 35.9174 115.944 35.7872C116.103 35.657 116.293 35.5542 116.512 35.479C116.735 35.4009 116.98 35.3618 117.246 35.3618C117.582 35.3618 117.877 35.4182 118.132 35.5311C118.389 35.644 118.59 35.8133 118.735 36.039C118.88 36.2647 118.952 36.5483 118.952 36.8898V39.1602C118.952 39.3223 118.964 39.4901 118.987 39.6638C119.013 39.8374 119.049 39.9807 119.095 40.0935V40.1456H118.544C118.509 40.0414 118.482 39.9112 118.462 39.7549C118.444 39.5957 118.436 39.4453 118.436 39.3035ZM118.557 37.4108L118.566 37.8101H117.546C117.279 37.8101 117.041 37.8347 116.829 37.8839C116.621 37.9302 116.444 37.9997 116.3 38.0923C116.155 38.182 116.044 38.2905 115.965 38.4179C115.89 38.5452 115.853 38.6899 115.853 38.852C115.853 39.0198 115.895 39.1732 115.979 39.3121C116.065 39.451 116.187 39.5625 116.343 39.6464C116.502 39.7274 116.69 39.7679 116.908 39.7679C117.197 39.7679 117.452 39.7144 117.672 39.6073C117.894 39.5002 118.078 39.3599 118.223 39.1862C118.368 39.0126 118.464 38.823 118.514 38.6176L118.739 38.9171C118.702 39.0618 118.632 39.2108 118.531 39.3642C118.433 39.5147 118.304 39.6565 118.145 39.7896C117.986 39.9199 117.797 40.027 117.58 40.1109C117.366 40.1919 117.123 40.2324 116.851 40.2324C116.544 40.2324 116.277 40.1746 116.048 40.0588C115.822 39.943 115.646 39.7853 115.518 39.5856C115.394 39.383 115.332 39.1544 115.332 38.8997C115.332 38.6682 115.381 38.4613 115.479 38.279C115.578 38.0937 115.72 37.9375 115.905 37.8101C116.093 37.6799 116.319 37.5815 116.582 37.5149C116.848 37.4455 117.146 37.4108 117.476 37.4108H118.557ZM120.858 36.3515V41.9515H120.337V35.4486H120.823L120.858 36.3515ZM124.122 37.7537V37.8449C124.122 38.195 124.082 38.5163 124.001 38.8086C123.92 39.1009 123.803 39.3541 123.649 39.5683C123.499 39.7795 123.312 39.943 123.089 40.0588C122.866 40.1746 122.613 40.2324 122.329 40.2324C122.049 40.2324 121.798 40.189 121.578 40.1022C121.359 40.0154 121.169 39.8924 121.01 39.7332C120.854 39.5711 120.728 39.383 120.632 39.1689C120.54 38.9518 120.474 38.7145 120.437 38.4569V37.2545C120.48 36.9709 120.551 36.7133 120.649 36.4818C120.748 36.2503 120.874 36.0506 121.027 35.8827C121.183 35.7149 121.369 35.5861 121.583 35.4964C121.797 35.4066 122.042 35.3618 122.316 35.3618C122.603 35.3618 122.858 35.4182 123.08 35.5311C123.306 35.6411 123.496 35.8017 123.649 36.0129C123.805 36.2213 123.923 36.4731 124.001 36.7683C124.082 37.0606 124.122 37.3891 124.122 37.7537ZM123.601 37.8449V37.7537C123.601 37.4788 123.572 37.2241 123.515 36.9897C123.46 36.7553 123.374 36.5512 123.258 36.3776C123.146 36.2011 123.001 36.0636 122.824 35.9652C122.651 35.8668 122.444 35.8176 122.204 35.8176C121.955 35.8176 121.742 35.8596 121.565 35.9435C121.392 36.0245 121.247 36.133 121.131 36.2691C121.016 36.4022 120.924 36.5483 120.858 36.7075C120.791 36.8667 120.742 37.023 120.71 37.1763V38.5611C120.765 38.7811 120.854 38.9851 120.975 39.1732C121.097 39.3584 121.259 39.5075 121.461 39.6203C121.667 39.7303 121.917 39.7853 122.212 39.7853C122.45 39.7853 122.655 39.7361 122.829 39.6377C123.002 39.5393 123.146 39.4018 123.258 39.2253C123.374 39.0488 123.46 38.8433 123.515 38.6089C123.572 38.3745 123.601 38.1198 123.601 37.8449ZM126.588 35.4486V40.1456H126.071V35.4486H126.588ZM128.298 35.4486V35.8914H124.422V35.4486H128.298ZM131.945 39.3035V36.8811C131.945 36.6583 131.899 36.4659 131.806 36.3038C131.713 36.1417 131.577 36.0173 131.398 35.9305C131.218 35.8436 130.997 35.8002 130.734 35.8002C130.491 35.8002 130.274 35.8436 130.083 35.9305C129.894 36.0144 129.745 36.1287 129.635 36.2734C129.528 36.4152 129.475 36.5729 129.475 36.7466L128.954 36.7422C128.954 36.5657 128.997 36.395 129.084 36.23C129.171 36.065 129.294 35.9174 129.453 35.7872C129.612 35.657 129.802 35.5542 130.022 35.479C130.245 35.4009 130.489 35.3618 130.755 35.3618C131.091 35.3618 131.386 35.4182 131.641 35.5311C131.899 35.644 132.1 35.8133 132.244 36.039C132.389 36.2647 132.461 36.5483 132.461 36.8898V39.1602C132.461 39.3223 132.473 39.4901 132.496 39.6638C132.522 39.8374 132.558 39.9807 132.605 40.0935V40.1456H132.053C132.019 40.0414 131.991 39.9112 131.971 39.7549C131.954 39.5957 131.945 39.4453 131.945 39.3035ZM132.066 37.4108L132.075 37.8101H131.055C130.789 37.8101 130.55 37.8347 130.339 37.8839C130.13 37.9302 129.954 37.9997 129.809 38.0923C129.664 38.182 129.553 38.2905 129.475 38.4179C129.4 38.5452 129.362 38.6899 129.362 38.852C129.362 39.0198 129.404 39.1732 129.488 39.3121C129.575 39.451 129.696 39.5625 129.853 39.6464C130.012 39.7274 130.2 39.7679 130.417 39.7679C130.706 39.7679 130.961 39.7144 131.181 39.6073C131.404 39.5002 131.587 39.3599 131.732 39.1862C131.877 39.0126 131.974 38.823 132.023 38.6176L132.249 38.9171C132.211 39.0618 132.142 39.2108 132.04 39.3642C131.942 39.5147 131.813 39.6565 131.654 39.7896C131.495 39.9199 131.307 40.027 131.09 40.1109C130.876 40.1919 130.632 40.2324 130.36 40.2324C130.054 40.2324 129.786 40.1746 129.557 40.0588C129.332 39.943 129.155 39.7853 129.028 39.5856C128.903 39.383 128.841 39.1544 128.841 38.8997C128.841 38.6682 128.89 38.4613 128.989 38.279C129.087 38.0937 129.229 37.9375 129.414 37.8101C129.602 37.6799 129.828 37.5815 130.091 37.5149C130.358 37.4455 130.656 37.4108 130.986 37.4108H132.066ZM136.451 39.4337L138.318 35.4486H138.834L136.633 40.1456H136.269L134.072 35.4486H134.589L136.451 39.4337ZM134.428 35.4486V40.1456H133.911V35.4486H134.428ZM138.439 40.1456V35.4486H138.96V40.1456H138.439ZM142.172 40.2324C141.866 40.2324 141.583 40.176 141.326 40.0631C141.071 39.9503 140.848 39.7911 140.657 39.5856C140.469 39.3801 140.323 39.137 140.219 38.8563C140.118 38.5727 140.067 38.263 140.067 37.9273V37.7407C140.067 37.3789 140.121 37.0519 140.228 36.7596C140.335 36.4673 140.482 36.217 140.67 36.0086C140.858 35.8002 141.073 35.6411 141.313 35.5311C141.556 35.4182 141.811 35.3618 142.077 35.3618C142.375 35.3618 142.64 35.4153 142.871 35.5224C143.103 35.6266 143.297 35.7756 143.453 35.9695C143.612 36.1605 143.732 36.3877 143.813 36.6511C143.894 36.9115 143.935 37.1995 143.935 37.5149V37.8318H140.38V37.3891H143.418V37.3283C143.412 37.0649 143.359 36.8189 143.258 36.5903C143.159 36.3588 143.012 36.1707 142.815 36.026C142.618 35.8813 142.372 35.8089 142.077 35.8089C141.857 35.8089 141.654 35.8552 141.469 35.9478C141.287 36.0404 141.129 36.1736 140.996 36.3472C140.866 36.5179 140.764 36.722 140.692 36.9593C140.623 37.1937 140.588 37.4542 140.588 37.7407V37.9273C140.588 38.1878 140.626 38.4309 140.701 38.6566C140.779 38.8795 140.889 39.0763 141.031 39.247C141.175 39.4178 141.346 39.5509 141.543 39.6464C141.74 39.7419 141.957 39.7896 142.194 39.7896C142.472 39.7896 142.718 39.739 142.932 39.6377C143.146 39.5335 143.339 39.37 143.509 39.1472L143.835 39.399C143.734 39.5494 143.606 39.6884 143.453 39.8157C143.303 39.943 143.122 40.0443 142.91 40.1196C142.699 40.1948 142.453 40.2324 142.172 40.2324ZM148.163 37.5497V37.9925H145.376V37.5497H148.163ZM145.511 35.4486V40.1456H144.994V35.4486H145.511ZM148.562 35.4486V40.1456H148.041V35.4486H148.562ZM151.618 35.4486V40.1456H151.102V35.4486H151.618ZM153.329 35.4486V35.8914H149.452V35.4486H153.329ZM155.656 40.2324C155.349 40.2324 155.067 40.176 154.809 40.0631C154.554 39.9503 154.332 39.7911 154.141 39.5856C153.953 39.3801 153.806 39.137 153.702 38.8563C153.601 38.5727 153.55 38.263 153.55 37.9273V37.7407C153.55 37.3789 153.604 37.0519 153.711 36.7596C153.818 36.4673 153.966 36.217 154.154 36.0086C154.342 35.8002 154.556 35.6411 154.796 35.5311C155.039 35.4182 155.294 35.3618 155.56 35.3618C155.858 35.3618 156.123 35.4153 156.355 35.5224C156.586 35.6266 156.78 35.7756 156.936 35.9695C157.095 36.1605 157.216 36.3877 157.297 36.6511C157.378 36.9115 157.418 37.1995 157.418 37.5149V37.8318H153.863V37.3891H156.902V37.3283C156.896 37.0649 156.842 36.8189 156.741 36.5903C156.643 36.3588 156.495 36.1707 156.298 36.026C156.101 35.8813 155.855 35.8089 155.56 35.8089C155.34 35.8089 155.138 35.8552 154.952 35.9478C154.77 36.0404 154.612 36.1736 154.479 36.3472C154.349 36.5179 154.248 36.722 154.175 36.9593C154.106 37.1937 154.071 37.4542 154.071 37.7407V37.9273C154.071 38.1878 154.109 38.4309 154.184 38.6566C154.262 38.8795 154.372 39.0763 154.514 39.247C154.659 39.4178 154.829 39.5509 155.026 39.6464C155.223 39.7419 155.44 39.7896 155.677 39.7896C155.955 39.7896 156.201 39.739 156.415 39.6377C156.63 39.5335 156.822 39.37 156.993 39.1472L157.318 39.399C157.217 39.5494 157.09 39.6884 156.936 39.8157C156.786 39.943 156.605 40.0443 156.394 40.1196C156.182 40.1948 155.936 40.2324 155.656 40.2324ZM162.271 35.4486V40.1456H161.755V35.4486H162.271ZM163.982 35.4486V35.8914H160.105V35.4486H163.982ZM165.354 36.3515V41.9515H164.833V35.4486H165.319L165.354 36.3515ZM168.618 37.7537V37.8449C168.618 38.195 168.578 38.5163 168.496 38.8086C168.415 39.1009 168.298 39.3541 168.145 39.5683C167.994 39.7795 167.808 39.943 167.585 40.0588C167.362 40.1746 167.109 40.2324 166.825 40.2324C166.544 40.2324 166.294 40.189 166.074 40.1022C165.854 40.0154 165.665 39.8924 165.505 39.7332C165.349 39.5711 165.223 39.383 165.128 39.1689C165.035 38.9518 164.97 38.7145 164.932 38.4569V37.2545C164.976 36.9709 165.047 36.7133 165.145 36.4818C165.244 36.2503 165.369 36.0506 165.523 35.8827C165.679 35.7149 165.864 35.5861 166.079 35.4964C166.293 35.4066 166.537 35.3618 166.812 35.3618C167.099 35.3618 167.353 35.4182 167.576 35.5311C167.802 35.6411 167.991 35.8017 168.145 36.0129C168.301 36.2213 168.418 36.4731 168.496 36.7683C168.578 37.0606 168.618 37.3891 168.618 37.7537ZM168.097 37.8449V37.7537C168.097 37.4788 168.068 37.2241 168.01 36.9897C167.955 36.7553 167.87 36.5512 167.754 36.3776C167.641 36.2011 167.497 36.0636 167.32 35.9652C167.146 35.8668 166.939 35.8176 166.699 35.8176C166.45 35.8176 166.238 35.8596 166.061 35.9435C165.888 36.0245 165.743 36.133 165.627 36.2691C165.511 36.4022 165.42 36.5483 165.354 36.7075C165.287 36.8667 165.238 37.023 165.206 37.1763V38.5611C165.261 38.7811 165.349 38.9851 165.471 39.1732C165.592 39.3584 165.754 39.5075 165.957 39.6203C166.162 39.7303 166.413 39.7853 166.708 39.7853C166.945 39.7853 167.151 39.7361 167.324 39.6377C167.498 39.5393 167.641 39.4018 167.754 39.2253C167.87 39.0488 167.955 38.8433 168.01 38.6089C168.068 38.3745 168.097 38.1198 168.097 37.8449ZM172.629 39.3035V36.8811C172.629 36.6583 172.583 36.4659 172.49 36.3038C172.398 36.1417 172.262 36.0173 172.082 35.9305C171.903 35.8436 171.681 35.8002 171.418 35.8002C171.175 35.8002 170.958 35.8436 170.767 35.9305C170.579 36.0144 170.43 36.1287 170.32 36.2734C170.213 36.4152 170.159 36.5729 170.159 36.7466L169.638 36.7422C169.638 36.5657 169.682 36.395 169.768 36.23C169.855 36.065 169.978 35.9174 170.137 35.7872C170.297 35.657 170.486 35.5542 170.706 35.479C170.929 35.4009 171.173 35.3618 171.44 35.3618C171.775 35.3618 172.071 35.4182 172.325 35.5311C172.583 35.644 172.784 35.8133 172.929 36.039C173.073 36.2647 173.146 36.5483 173.146 36.8898V39.1602C173.146 39.3223 173.157 39.4901 173.18 39.6638C173.207 39.8374 173.243 39.9807 173.289 40.0935V40.1456H172.738C172.703 40.0414 172.675 39.9112 172.655 39.7549C172.638 39.5957 172.629 39.4453 172.629 39.3035ZM172.751 37.4108L172.759 37.8101H171.739C171.473 37.8101 171.234 37.8347 171.023 37.8839C170.815 37.9302 170.638 37.9997 170.493 38.0923C170.349 38.182 170.237 38.2905 170.159 38.4179C170.084 38.5452 170.046 38.6899 170.046 38.852C170.046 39.0198 170.088 39.1732 170.172 39.3121C170.259 39.451 170.38 39.5625 170.537 39.6464C170.696 39.7274 170.884 39.7679 171.101 39.7679C171.391 39.7679 171.645 39.7144 171.865 39.6073C172.088 39.5002 172.272 39.3599 172.416 39.1862C172.561 39.0126 172.658 38.823 172.707 38.6176L172.933 38.9171C172.895 39.0618 172.826 39.2108 172.725 39.3642C172.626 39.5147 172.497 39.6565 172.338 39.7896C172.179 39.9199 171.991 40.027 171.774 40.1109C171.56 40.1919 171.317 40.2324 171.045 40.2324C170.738 40.2324 170.47 40.1746 170.242 40.0588C170.016 39.943 169.839 39.7853 169.712 39.5856C169.588 39.383 169.525 39.1544 169.525 38.8997C169.525 38.6682 169.575 38.4613 169.673 38.279C169.771 38.0937 169.913 37.9375 170.098 37.8101C170.286 37.6799 170.512 37.5815 170.776 37.5149C171.042 37.4455 171.34 37.4108 171.67 37.4108H172.751ZM177.743 37.5497V37.9925H174.956V37.5497H177.743ZM175.091 35.4486V40.1456H174.574V35.4486H175.091ZM178.142 35.4486V40.1456H177.621V35.4486H178.142ZM181.272 39.7853C181.492 39.7853 181.698 39.7448 181.889 39.6638C182.083 39.5798 182.242 39.4568 182.366 39.2948C182.493 39.1298 182.566 38.9287 182.583 38.6914H183.078C183.064 38.9894 182.972 39.2557 182.805 39.4901C182.64 39.7216 182.423 39.904 182.153 40.0371C181.887 40.1673 181.593 40.2324 181.272 40.2324C180.945 40.2324 180.656 40.1731 180.404 40.0545C180.155 39.9358 179.947 39.7708 179.779 39.5596C179.611 39.3454 179.484 39.0965 179.397 38.8129C179.313 38.5264 179.271 38.2182 179.271 37.8883V37.7059C179.271 37.376 179.313 37.0693 179.397 36.7856C179.484 36.4991 179.611 36.2503 179.779 36.039C179.947 35.8248 180.155 35.6584 180.404 35.5398C180.653 35.4211 180.941 35.3618 181.268 35.3618C181.604 35.3618 181.905 35.4298 182.171 35.5658C182.44 35.7018 182.654 35.8943 182.813 36.1432C182.975 36.3921 183.064 36.6872 183.078 37.0287H182.583C182.569 36.777 182.502 36.5599 182.383 36.3776C182.265 36.1953 182.109 36.0549 181.915 35.9565C181.721 35.8581 181.505 35.8089 181.268 35.8089C181.002 35.8089 180.774 35.861 180.586 35.9652C180.398 36.0665 180.245 36.2068 180.126 36.3863C180.01 36.5628 179.925 36.7654 179.87 36.994C179.815 37.2198 179.788 37.4571 179.788 37.7059V37.8883C179.788 38.1401 179.814 38.3803 179.866 38.6089C179.921 38.8346 180.006 39.0358 180.122 39.2123C180.24 39.3888 180.394 39.5292 180.582 39.6334C180.773 39.7347 181.003 39.7853 181.272 39.7853ZM187.306 35.4486V35.9001H184.558V35.4486H187.306ZM184.676 35.4486V40.1456H184.159V35.4486H184.676ZM187.732 35.4486V40.1456H187.211V35.4486H187.732ZM188.839 37.8709V37.7277C188.839 37.3862 188.888 37.0707 188.986 36.7813C189.085 36.4919 189.225 36.2416 189.407 36.0303C189.593 35.819 189.814 35.6555 190.071 35.5398C190.329 35.4211 190.616 35.3618 190.931 35.3618C191.249 35.3618 191.537 35.4211 191.795 35.5398C192.052 35.6555 192.274 35.819 192.459 36.0303C192.644 36.2416 192.786 36.4919 192.884 36.7813C192.983 37.0707 193.032 37.3862 193.032 37.7277V37.8709C193.032 38.2124 192.983 38.5279 192.884 38.8173C192.786 39.1038 192.644 39.3527 192.459 39.5639C192.277 39.7752 192.057 39.9401 191.799 40.0588C191.542 40.1746 191.255 40.2324 190.94 40.2324C190.621 40.2324 190.333 40.1746 190.076 40.0588C189.818 39.9401 189.597 39.7752 189.412 39.5639C189.226 39.3527 189.085 39.1038 188.986 38.8173C188.888 38.5279 188.839 38.2124 188.839 37.8709ZM189.355 37.7277V37.8709C189.355 38.1285 189.39 38.373 189.459 38.6045C189.529 38.8332 189.63 39.0372 189.763 39.2166C189.896 39.3932 190.061 39.5321 190.258 39.6334C190.455 39.7347 190.682 39.7853 190.94 39.7853C191.194 39.7853 191.419 39.7347 191.613 39.6334C191.809 39.5321 191.974 39.3932 192.107 39.2166C192.241 39.0372 192.34 38.8332 192.407 38.6045C192.476 38.373 192.511 38.1285 192.511 37.8709V37.7277C192.511 37.473 192.476 37.2313 192.407 37.0027C192.34 36.7741 192.239 36.57 192.103 36.3906C191.97 36.2112 191.805 36.0694 191.608 35.9652C191.411 35.861 191.186 35.8089 190.931 35.8089C190.676 35.8089 190.451 35.861 190.254 35.9652C190.06 36.0694 189.895 36.2112 189.759 36.3906C189.626 36.57 189.524 36.7741 189.455 37.0027C189.388 37.2313 189.355 37.473 189.355 37.7277ZM194.621 36.3515V41.9515H194.1V35.4486H194.586L194.621 36.3515ZM197.885 37.7537V37.8449C197.885 38.195 197.845 38.5163 197.764 38.8086C197.683 39.1009 197.566 39.3541 197.412 39.5683C197.262 39.7795 197.075 39.943 196.852 40.0588C196.629 40.1746 196.376 40.2324 196.092 40.2324C195.812 40.2324 195.561 40.189 195.341 40.1022C195.122 40.0154 194.932 39.8924 194.773 39.7332C194.617 39.5711 194.491 39.383 194.395 39.1689C194.303 38.9518 194.237 38.7145 194.2 38.4569V37.2545C194.243 36.9709 194.314 36.7133 194.413 36.4818C194.511 36.2503 194.637 36.0506 194.79 35.8827C194.946 35.7149 195.132 35.5861 195.346 35.4964C195.56 35.4066 195.805 35.3618 196.079 35.3618C196.366 35.3618 196.621 35.4182 196.843 35.5311C197.069 35.6411 197.259 35.8017 197.412 36.0129C197.568 36.2213 197.686 36.4731 197.764 36.7683C197.845 37.0606 197.885 37.3891 197.885 37.7537ZM197.364 37.8449V37.7537C197.364 37.4788 197.335 37.2241 197.278 36.9897C197.223 36.7553 197.137 36.5512 197.021 36.3776C196.909 36.2011 196.764 36.0636 196.587 35.9652C196.414 35.8668 196.207 35.8176 195.967 35.8176C195.718 35.8176 195.505 35.8596 195.328 35.9435C195.155 36.0245 195.01 36.133 194.894 36.2691C194.779 36.4022 194.687 36.5483 194.621 36.7075C194.554 36.8667 194.505 37.023 194.473 37.1763V38.5611C194.528 38.7811 194.617 38.9851 194.738 39.1732C194.86 39.3584 195.022 39.5075 195.224 39.6203C195.43 39.7303 195.68 39.7853 195.975 39.7853C196.213 39.7853 196.418 39.7361 196.592 39.6377C196.765 39.5393 196.909 39.4018 197.021 39.2253C197.137 39.0488 197.223 38.8433 197.278 38.6089C197.335 38.3745 197.364 38.1198 197.364 37.8449ZM200.351 35.4486V40.1456H199.834V35.4486H200.351ZM202.061 35.4486V35.8914H198.185V35.4486H202.061ZM205.708 39.3035V36.8811C205.708 36.6583 205.662 36.4659 205.569 36.3038C205.476 36.1417 205.34 36.0173 205.161 35.9305C204.982 35.8436 204.76 35.8002 204.497 35.8002C204.254 35.8002 204.037 35.8436 203.846 35.9305C203.657 36.0144 203.508 36.1287 203.398 36.2734C203.291 36.4152 203.238 36.5729 203.238 36.7466L202.717 36.7422C202.717 36.5657 202.76 36.395 202.847 36.23C202.934 36.065 203.057 35.9174 203.216 35.7872C203.375 35.657 203.565 35.5542 203.785 35.479C204.008 35.4009 204.252 35.3618 204.518 35.3618C204.854 35.3618 205.149 35.4182 205.404 35.5311C205.662 35.644 205.863 35.8133 206.007 36.039C206.152 36.2647 206.224 36.5483 206.224 36.8898V39.1602C206.224 39.3223 206.236 39.4901 206.259 39.6638C206.285 39.8374 206.321 39.9807 206.368 40.0935V40.1456H205.816C205.782 40.0414 205.754 39.9112 205.734 39.7549C205.717 39.5957 205.708 39.4453 205.708 39.3035ZM205.829 37.4108L205.838 37.8101H204.818C204.552 37.8101 204.313 37.8347 204.102 37.8839C203.893 37.9302 203.717 37.9997 203.572 38.0923C203.427 38.182 203.316 38.2905 203.238 38.4179C203.163 38.5452 203.125 38.6899 203.125 38.852C203.125 39.0198 203.167 39.1732 203.251 39.3121C203.338 39.451 203.459 39.5625 203.616 39.6464C203.775 39.7274 203.963 39.7679 204.18 39.7679C204.469 39.7679 204.724 39.7144 204.944 39.6073C205.167 39.5002 205.35 39.3599 205.495 39.1862C205.64 39.0126 205.737 38.823 205.786 38.6176L206.012 38.9171C205.974 39.0618 205.905 39.2108 205.803 39.3642C205.705 39.5147 205.576 39.6565 205.417 39.7896C205.258 39.9199 205.07 40.027 204.853 40.1109C204.639 40.1919 204.395 40.2324 204.123 40.2324C203.817 40.2324 203.549 40.1746 203.32 40.0588C203.095 39.943 202.918 39.7853 202.791 39.5856C202.666 39.383 202.604 39.1544 202.604 38.8997C202.604 38.6682 202.653 38.4613 202.752 38.279C202.85 38.0937 202.992 37.9375 203.177 37.8101C203.365 37.6799 203.591 37.5815 203.854 37.5149C204.121 37.4455 204.419 37.4108 204.749 37.4108H205.829ZM212.714 35.4486V35.9001H210.335V40.1456H209.819V35.4486H212.714ZM213.491 39.8287C213.491 39.7274 213.523 39.6421 213.587 39.5726C213.653 39.5002 213.743 39.4641 213.856 39.4641C213.972 39.4641 214.063 39.5002 214.13 39.5726C214.196 39.6421 214.229 39.7274 214.229 39.8287C214.229 39.9271 214.196 40.011 214.13 40.0805C214.063 40.15 213.972 40.1847 213.856 40.1847C213.743 40.1847 213.653 40.15 213.587 40.0805C213.523 40.011 213.491 39.9271 213.491 39.8287ZM218.123 33.8251H218.662L220.997 39.3903L223.337 33.8251H223.871L221.201 40.1456H220.793L218.123 33.8251ZM217.958 33.8251H218.432L218.488 37.3847V40.1456H217.958V33.8251ZM223.571 33.8251H224.044V40.1456H223.511V37.3847L223.571 33.8251ZM225.243 37.8709V37.7277C225.243 37.3862 225.292 37.0707 225.39 36.7813C225.489 36.4919 225.629 36.2416 225.811 36.0303C225.997 35.819 226.218 35.6555 226.475 35.5398C226.733 35.4211 227.02 35.3618 227.335 35.3618C227.653 35.3618 227.941 35.4211 228.199 35.5398C228.456 35.6555 228.678 35.819 228.863 36.0303C229.048 36.2416 229.19 36.4919 229.288 36.7813C229.387 37.0707 229.436 37.3862 229.436 37.7277V37.8709C229.436 38.2124 229.387 38.5279 229.288 38.8173C229.19 39.1038 229.048 39.3527 228.863 39.5639C228.681 39.7752 228.461 39.9401 228.203 40.0588C227.946 40.1746 227.659 40.2324 227.344 40.2324C227.025 40.2324 226.737 40.1746 226.48 40.0588C226.222 39.9401 226.001 39.7752 225.816 39.5639C225.63 39.3527 225.489 39.1038 225.39 38.8173C225.292 38.5279 225.243 38.2124 225.243 37.8709ZM225.759 37.7277V37.8709C225.759 38.1285 225.794 38.373 225.863 38.6045C225.933 38.8332 226.034 39.0372 226.167 39.2166C226.3 39.3932 226.465 39.5321 226.662 39.6334C226.859 39.7347 227.086 39.7853 227.344 39.7853C227.598 39.7853 227.823 39.7347 228.017 39.6334C228.213 39.5321 228.378 39.3932 228.511 39.2166C228.645 39.0372 228.744 38.8332 228.811 38.6045C228.88 38.373 228.915 38.1285 228.915 37.8709V37.7277C228.915 37.473 228.88 37.2313 228.811 37.0027C228.744 36.7741 228.643 36.57 228.507 36.3906C228.374 36.2112 228.209 36.0694 228.012 35.9652C227.815 35.861 227.59 35.8089 227.335 35.8089C227.08 35.8089 226.855 35.861 226.658 35.9652C226.464 36.0694 226.299 36.2112 226.163 36.3906C226.03 36.57 225.929 36.7741 225.859 37.0027C225.792 37.2313 225.759 37.473 225.759 37.7277ZM232.245 39.7853C232.465 39.7853 232.67 39.7448 232.861 39.6638C233.055 39.5798 233.214 39.4568 233.339 39.2948C233.466 39.1298 233.538 38.9287 233.556 38.6914H234.051C234.036 38.9894 233.945 39.2557 233.777 39.4901C233.612 39.7216 233.395 39.904 233.126 40.0371C232.86 40.1673 232.566 40.2324 232.245 40.2324C231.918 40.2324 231.628 40.1731 231.377 40.0545C231.128 39.9358 230.919 39.7708 230.751 39.5596C230.584 39.3454 230.456 39.0965 230.369 38.8129C230.285 38.5264 230.243 38.2182 230.243 37.8883V37.7059C230.243 37.376 230.285 37.0693 230.369 36.7856C230.456 36.4991 230.584 36.2503 230.751 36.039C230.919 35.8248 231.128 35.6584 231.377 35.5398C231.625 35.4211 231.913 35.3618 232.24 35.3618C232.576 35.3618 232.877 35.4298 233.143 35.5658C233.412 35.7018 233.627 35.8943 233.786 36.1432C233.948 36.3921 234.036 36.6872 234.051 37.0287H233.556C233.541 36.777 233.475 36.5599 233.356 36.3776C233.237 36.1953 233.081 36.0549 232.887 35.9565C232.693 35.8581 232.478 35.8089 232.24 35.8089C231.974 35.8089 231.747 35.861 231.559 35.9652C231.371 36.0665 231.217 36.2068 231.099 36.3863C230.983 36.5628 230.898 36.7654 230.843 36.994C230.788 37.2198 230.76 37.4571 230.76 37.7059V37.8883C230.76 38.1401 230.786 38.3803 230.838 38.6089C230.893 38.8346 230.979 39.0358 231.094 39.2123C231.213 39.3888 231.366 39.5292 231.554 39.6334C231.746 39.7347 231.976 39.7853 232.245 39.7853ZM235.648 35.4486V40.1456H235.127V35.4486H235.648ZM238.739 35.4486L236.586 37.9925H235.466L235.409 37.528H236.364L238.083 35.4486H238.739ZM238.27 40.1456L236.312 37.923L236.642 37.5236L238.956 40.1456H238.27ZM241.782 37.9794H240.132L240.124 37.5453H241.53C241.814 37.5453 242.05 37.5149 242.238 37.4542C242.429 37.3905 242.572 37.2964 242.668 37.172C242.766 37.0476 242.815 36.8942 242.815 36.7118C242.815 36.5729 242.786 36.4514 242.728 36.3472C242.673 36.243 242.589 36.1576 242.477 36.0911C242.367 36.0245 242.228 35.9753 242.06 35.9435C241.895 35.9088 241.702 35.8914 241.482 35.8914H240.28V40.1456H239.763V35.4486H241.482C241.769 35.4486 242.025 35.4747 242.251 35.5267C242.479 35.5759 242.675 35.6512 242.837 35.7525C242.999 35.8538 243.122 35.984 243.206 36.1432C243.293 36.2994 243.336 36.4847 243.336 36.6988C243.336 36.8435 243.309 36.9795 243.254 37.1069C243.199 37.2313 243.118 37.3442 243.01 37.4455C242.906 37.5439 242.778 37.6249 242.624 37.6886C242.471 37.7494 242.294 37.787 242.095 37.8015L241.782 37.9794ZM241.782 40.1456H239.972L240.171 39.7028H241.782C242.042 39.7028 242.264 39.6695 242.446 39.603C242.628 39.5364 242.766 39.438 242.859 39.3078C242.954 39.1776 243.002 39.0198 243.002 38.8346C243.002 38.661 242.954 38.5105 242.859 38.3832C242.766 38.2558 242.628 38.1574 242.446 38.088C242.264 38.0156 242.042 37.9794 241.782 37.9794H240.584L240.593 37.5453H242.134L242.355 37.7103C242.592 37.7305 242.798 37.7942 242.971 37.9013C243.145 38.0084 243.28 38.1444 243.375 38.3094C243.471 38.4714 243.518 38.6494 243.518 38.8433C243.518 39.0575 243.478 39.247 243.397 39.412C243.316 39.574 243.199 39.7101 243.045 39.82C242.895 39.9271 242.712 40.0081 242.498 40.0631C242.284 40.1181 242.045 40.1456 241.782 40.1456ZM245.068 37.1503H246.601C246.971 37.1503 247.284 37.2154 247.538 37.3456C247.793 37.473 247.985 37.6495 248.116 37.8752C248.249 38.101 248.315 38.3557 248.315 38.6393C248.315 38.8534 248.278 39.0531 248.202 39.2383C248.13 39.4207 248.02 39.5798 247.872 39.7159C247.728 39.8519 247.548 39.9575 247.334 40.0327C247.123 40.108 246.878 40.1456 246.601 40.1456H244.738V35.4486H245.255V39.6985H246.601C246.887 39.6985 247.119 39.6493 247.295 39.5509C247.472 39.4496 247.599 39.3194 247.677 39.1602C247.758 39.001 247.799 38.8317 247.799 38.6523C247.799 38.4758 247.758 38.3079 247.677 38.1487C247.599 37.9867 247.472 37.855 247.295 37.7537C247.119 37.6495 246.887 37.5974 246.601 37.5974H245.068V37.1503ZM249.908 35.4486V40.1456H249.392V35.4486H249.908Z" fill="black"/>
</svg>
