<svg width="248" height="44" viewBox="0 0 248 44" fill="none" xmlns="http://www.w3.org/2000/svg">
<path d="M0.280143 1.53138C0.680348 3.69473 1.961 5.89476 3.64186 7.2881C6.52333 9.67146 6.88352 9.70813 30.9358 9.70813C52.3868 9.70813 52.4668 9.70813 52.4668 10.4415C52.4668 11.9448 51.2662 13.4115 49.4653 14.1448C47.7844 14.8415 46.7039 14.8782 29.5751 14.8415C19.61 14.8415 11.2457 14.8048 11.0056 14.8415C10.6855 14.8415 10.6454 15.3549 10.8856 16.5282C11.4859 19.4982 13.647 21.9183 16.8486 23.2383C18.5295 23.9349 19.4499 24.0083 30.3755 24.0083H42.0615V24.8149C42.0615 26.135 40.7008 27.8583 39.14 28.5183C37.9794 29.0317 36.3786 29.1417 29.4951 29.1417H21.2509V30.1317C21.2509 31.5983 22.9317 34.6417 24.4925 35.9984C27.2939 38.4184 27.7342 38.4918 41.4612 38.6018L53.8675 38.7118L55.5084 40.2884C57.7495 42.4151 61.0312 43.5885 63.9927 43.2951C66.7541 43.0018 69.7556 41.6084 71.1163 39.9584L72.1569 38.6751H76.9593C81.7217 38.6751 81.7618 38.6751 82.9224 37.6117C83.7628 36.8417 84.083 36.1817 84.083 35.2651C84.083 34.165 83.9229 33.9817 82.9224 33.7984C81.1214 33.4684 79.2805 31.745 79.0004 30.1683L78.7602 28.775H81.4416H84.083V24.2283V19.6816L82.4421 19.4249C79.8808 19.0216 78.1999 18.2515 76.5591 16.7482C74.6381 14.9882 73.6776 13.1182 73.6776 11.2115V9.70813H78.9203H84.163L83.8828 8.49811C83.4826 6.66476 82.8423 5.30808 82.4421 5.52808C82.242 5.63809 82.202 5.49142 82.3221 5.19808C82.6422 4.42807 80.8013 2.66806 78.4 1.45804L76.279 0.358033L38.1395 0.248032L0 0.174697L0.280143 1.53138ZM65.6335 29.655C67.9147 30.645 69.0353 33.615 67.9147 35.7784C66.2338 39.0418 61.7916 39.6284 59.1102 36.9517C57.0692 34.9717 57.4293 31.745 59.7905 30.095C61.7515 28.7383 63.2723 28.6283 65.6335 29.655Z" fill="#E53E3E"/>
<path d="M94.1381 18V3.59746H102.602V18H99.7213V5.6956H97.0186V18H94.1381ZM104.765 18V3.59746H109.335C110.2 3.59746 110.905 3.76341 111.451 4.09532C111.996 4.41538 112.399 4.88361 112.66 5.50001C112.932 6.11642 113.069 6.86322 113.069 7.74041C113.069 8.7717 112.891 9.57777 112.535 10.1586C112.191 10.7395 111.717 11.1543 111.113 11.4033C110.508 11.6404 109.815 11.7589 109.032 11.7589H107.699V18H104.765ZM107.699 9.69631H108.73C109.157 9.69631 109.483 9.63111 109.708 9.50072C109.945 9.35847 110.105 9.13918 110.188 8.84283C110.271 8.54648 110.313 8.16715 110.313 7.70485C110.313 7.26625 110.277 6.89878 110.206 6.60243C110.147 6.30608 110.004 6.07493 109.779 5.90898C109.554 5.74302 109.198 5.66004 108.712 5.66004H107.699V9.69631ZM118.594 18.1956C117.539 18.1956 116.704 18.0059 116.087 17.6266C115.471 17.2473 115.026 16.7079 114.754 16.0085C114.493 15.2973 114.362 14.4497 114.362 13.4659V8.09603C114.362 7.11215 114.493 6.27052 114.754 5.57114C115.026 4.87175 115.471 4.33833 116.087 3.97085C116.704 3.60338 117.539 3.41965 118.594 3.41965C119.661 3.41965 120.503 3.60931 121.119 3.98864C121.747 4.35611 122.192 4.88954 122.453 5.58892C122.725 6.27645 122.862 7.11215 122.862 8.09603V13.4659C122.862 14.4497 122.725 15.2973 122.453 16.0085C122.192 16.7079 121.747 17.2473 121.119 17.6266C120.503 18.0059 119.661 18.1956 118.594 18.1956ZM118.594 16.0797C118.974 16.0797 119.252 15.9967 119.43 15.8307C119.608 15.6529 119.726 15.4218 119.786 15.1373C119.845 14.8409 119.874 14.5268 119.874 14.1949V7.38479C119.874 7.05288 119.845 6.74468 119.786 6.46018C119.726 6.17569 119.608 5.95046 119.43 5.78451C119.252 5.6067 118.974 5.5178 118.594 5.5178C118.239 5.5178 117.972 5.6067 117.794 5.78451C117.616 5.95046 117.498 6.17569 117.438 6.46018C117.379 6.74468 117.35 7.05288 117.35 7.38479V14.1949C117.35 14.5268 117.373 14.8409 117.421 15.1373C117.48 15.4218 117.598 15.6529 117.776 15.8307C117.954 15.9967 118.227 16.0797 118.594 16.0797ZM124.821 18V3.59746H128.466C129.094 3.59746 129.675 3.6508 130.208 3.75748C130.742 3.86417 131.21 4.05383 131.613 4.32647C132.028 4.59911 132.342 4.97844 132.555 5.46445C132.781 5.93861 132.893 6.56094 132.893 7.33145C132.893 7.91229 132.81 8.41016 132.644 8.82505C132.478 9.22808 132.241 9.54814 131.933 9.78522C131.625 10.0223 131.245 10.1823 130.795 10.2653C131.352 10.3483 131.82 10.5379 132.2 10.8343C132.579 11.1306 132.864 11.5218 133.053 12.0078C133.243 12.4938 133.338 13.0806 133.338 13.7681C133.338 14.4912 133.243 15.1195 133.053 15.6529C132.875 16.1863 132.609 16.6249 132.253 16.9687C131.897 17.3125 131.459 17.5733 130.937 17.7511C130.416 17.917 129.811 18 129.124 18H124.821ZM127.754 15.9374H128.572C129.307 15.9374 129.811 15.7537 130.084 15.3862C130.368 15.0187 130.51 14.4675 130.51 13.7326C130.51 13.1636 130.445 12.7131 130.315 12.3812C130.185 12.0375 129.971 11.7885 129.675 11.6344C129.39 11.4685 129.005 11.3855 128.519 11.3855H127.754V15.9374ZM127.754 9.41182H128.483C128.993 9.41182 129.378 9.34069 129.639 9.19844C129.9 9.04434 130.078 8.81912 130.173 8.52277C130.279 8.21457 130.333 7.84117 130.333 7.40257C130.333 6.96398 130.256 6.61429 130.102 6.3535C129.959 6.08086 129.734 5.88527 129.426 5.76673C129.13 5.64819 128.75 5.58892 128.288 5.58892H127.754V9.41182ZM135.031 18V3.59746H141.307V5.62448H137.965V9.44738H140.543V11.4922H137.965V16.0085H141.343V18H135.031ZM142.827 18V3.59746H147.397C148.262 3.59746 148.968 3.76341 149.513 4.09532C150.058 4.41538 150.461 4.88361 150.722 5.50001C150.995 6.11642 151.131 6.86322 151.131 7.74041C151.131 8.7717 150.953 9.57777 150.598 10.1586C150.254 10.7395 149.78 11.1543 149.175 11.4033C148.57 11.6404 147.877 11.7589 147.095 11.7589H145.761V18H142.827ZM145.761 9.69631H146.792C147.219 9.69631 147.545 9.63111 147.77 9.50072C148.007 9.35847 148.167 9.13918 148.25 8.84283C148.333 8.54648 148.375 8.16715 148.375 7.70485C148.375 7.26625 148.339 6.89878 148.268 6.60243C148.209 6.30608 148.067 6.07493 147.841 5.90898C147.616 5.74302 147.261 5.66004 146.775 5.66004H145.761V9.69631ZM152.674 18V3.59746H155.607V9.44738H156.016L158.239 3.59746H161.155L158.47 10.372L161.297 18H158.292L156.016 11.5633H155.607V18H152.674ZM161.842 18L164.633 3.59746H167.887L170.661 18H167.941L167.425 14.835H165.149L164.598 18H161.842ZM165.416 13.0391H167.14L166.269 7.22476L165.416 13.0391ZM94.1381 39V24.5975H102.602V39H99.7213V26.6956H97.0186V39H94.1381ZM104.765 39V24.5975H109.335C110.2 24.5975 110.905 24.7634 111.451 25.0953C111.996 25.4154 112.399 25.8836 112.66 26.5C112.932 27.1164 113.069 27.8632 113.069 28.7404C113.069 29.7717 112.891 30.5778 112.535 31.1586C112.191 31.7395 111.717 32.1543 111.113 32.4033C110.508 32.6404 109.815 32.7589 109.032 32.7589H107.699V39H104.765ZM107.699 30.6963H108.73C109.157 30.6963 109.483 30.6311 109.708 30.5007C109.945 30.3585 110.105 30.1392 110.188 29.8428C110.271 29.5465 110.313 29.1672 110.313 28.7048C110.313 28.2663 110.277 27.8988 110.206 27.6024C110.147 27.3061 110.004 27.0749 109.779 26.909C109.554 26.743 109.198 26.66 108.712 26.66H107.699V30.6963ZM118.594 39.1956C117.539 39.1956 116.704 39.0059 116.087 38.6266C115.471 38.2473 115.026 37.7079 114.754 37.0085C114.493 36.2973 114.362 35.4497 114.362 34.4659V29.096C114.362 28.1122 114.493 27.2705 114.754 26.5711C115.026 25.8718 115.471 25.3383 116.087 24.9709C116.704 24.6034 117.539 24.4196 118.594 24.4196C119.661 24.4196 120.503 24.6093 121.119 24.9886C121.747 25.3561 122.192 25.8895 122.453 26.5889C122.725 27.2764 122.862 28.1122 122.862 29.096V34.4659C122.862 35.4497 122.725 36.2973 122.453 37.0085C122.192 37.7079 121.747 38.2473 121.119 38.6266C120.503 39.0059 119.661 39.1956 118.594 39.1956ZM118.594 37.0797C118.974 37.0797 119.252 36.9967 119.43 36.8307C119.608 36.6529 119.726 36.4218 119.786 36.1373C119.845 35.8409 119.874 35.5268 119.874 35.1949V28.3848C119.874 28.0529 119.845 27.7447 119.786 27.4602C119.726 27.1757 119.608 26.9505 119.43 26.7845C119.252 26.6067 118.974 26.5178 118.594 26.5178C118.239 26.5178 117.972 26.6067 117.794 26.7845C117.616 26.9505 117.498 27.1757 117.438 27.4602C117.379 27.7447 117.35 28.0529 117.35 28.3848V35.1949C117.35 35.5268 117.373 35.8409 117.421 36.1373C117.48 36.4218 117.598 36.6529 117.776 36.8307C117.954 36.9967 118.227 37.0797 118.594 37.0797ZM124.821 39V24.5975H133.284V39H130.404V26.6956H127.701V39H124.821ZM135.305 41.8272V39.7646C135.471 39.7764 135.625 39.7824 135.768 39.7824C135.922 39.7942 136.058 39.8001 136.177 39.8001C136.461 39.8001 136.71 39.7764 136.923 39.729C137.149 39.6816 137.338 39.5986 137.492 39.4801C137.658 39.3734 137.783 39.2312 137.866 39.0533C137.949 38.8755 137.99 38.6681 137.99 38.431C137.99 38.2532 137.978 38.0932 137.955 37.9509C137.943 37.8087 137.925 37.6605 137.901 37.5064L134.736 24.5975H137.475L138.701 30.5718L139.324 34.5726L139.804 30.5541L140.853 24.5975H143.609L140.782 37.5953C140.604 38.4014 140.402 39.0771 140.177 39.6223C139.952 40.1795 139.679 40.6181 139.359 40.9381C139.039 41.27 138.648 41.5071 138.186 41.6494C137.735 41.8035 137.178 41.8805 136.514 41.8805C136.348 41.8805 136.165 41.8746 135.963 41.8627C135.762 41.8509 135.542 41.839 135.305 41.8272ZM148.912 39.1956C147.845 39.1956 146.997 38.9941 146.369 38.591C145.753 38.188 145.32 37.6309 145.071 36.9196C144.822 36.1965 144.698 35.3608 144.698 34.4125V29.2383C144.698 28.2425 144.822 27.3891 145.071 26.6778C145.32 25.9547 145.753 25.3976 146.369 25.0064C146.997 24.6152 147.845 24.4196 148.912 24.4196C149.943 24.4196 150.749 24.5915 151.33 24.9353C151.923 25.2791 152.337 25.7651 152.575 26.3933C152.823 27.0216 152.948 27.7506 152.948 28.5804V29.7895H150.103V28.4381C150.103 28.1062 150.085 27.798 150.05 27.5135C150.014 27.2172 149.913 26.9801 149.747 26.8023C149.593 26.6126 149.321 26.5178 148.929 26.5178C148.538 26.5178 148.254 26.6126 148.076 26.8023C147.898 26.992 147.786 27.2409 147.738 27.5491C147.691 27.8454 147.667 28.1773 147.667 28.5448V35.0882C147.667 35.4912 147.697 35.8469 147.756 36.1551C147.827 36.4514 147.951 36.6826 148.129 36.8485C148.319 37.0026 148.586 37.0797 148.929 37.0797C149.309 37.0797 149.575 36.9908 149.73 36.8129C149.896 36.6233 149.996 36.3744 150.032 36.0661C150.079 35.7579 150.103 35.432 150.103 35.0882V33.6835H152.948V34.8748C152.948 35.7165 152.829 36.4633 152.592 37.1152C152.355 37.7553 151.946 38.2651 151.365 38.6444C150.785 39.0119 149.967 39.1956 148.912 39.1956ZM154.775 39V24.5975H157.708V30.4474H158.117L160.34 24.5975H163.256L160.571 31.372L163.398 39H160.393L158.117 32.5633H157.708V39H154.775ZM163.943 39L166.734 24.5975H169.988L172.762 39H170.042L169.526 35.835H167.25L166.699 39H163.943ZM167.517 34.0391H169.242L168.37 28.2248L167.517 34.0391ZM178.702 39V24.5975H181.636V30.5185H184.179V24.5975H187.113V39H184.179V32.6166H181.636V39H178.702ZM188.617 39L191.409 24.5975H194.663L197.437 39H194.716L194.2 35.835H191.925L191.373 39H188.617ZM192.191 34.0391H193.916L193.045 28.2248L192.191 34.0391ZM203.288 39L203.537 24.5975H206.649L208.427 33.6835L210.329 24.5975H213.334L213.583 39H211.45L211.218 29.2383L209.387 39H207.555L205.635 29.1672L205.44 39H203.288ZM215.74 39V24.5975H218.674V30.4474H219.083L221.306 24.5975H224.222L221.537 31.372L224.364 39H221.359L219.083 32.5633H218.674V39H215.74ZM224.908 39L227.7 24.5975H230.954L233.728 39H231.007L230.492 35.835H228.216L227.664 39H224.908ZM228.482 34.0391H230.207L229.336 28.2248L228.482 34.0391ZM234.405 41.7916V36.9019H234.849C235.11 36.807 235.353 36.6529 235.579 36.4395C235.804 36.2143 236.005 35.9239 236.183 35.5683C236.373 35.2008 236.545 34.7444 236.699 34.1992C236.853 33.6539 236.983 32.99 237.09 32.2077C237.197 31.4253 237.285 30.5126 237.357 29.4694L237.712 24.5975H244.273V36.9019H245.838V41.7916H243.918L243.704 39H236.628L236.325 41.7916H234.405ZM237.623 36.9019H241.517V26.6956H239.97L239.81 29.825C239.751 30.8919 239.668 31.7987 239.561 32.5455C239.455 33.2923 239.324 33.9147 239.17 34.4125C239.028 34.8985 238.874 35.2956 238.708 35.6038C238.542 35.912 238.364 36.161 238.175 36.3506C237.985 36.5403 237.801 36.724 237.623 36.9019Z" fill="black"/>
</svg>
